<svg width="4" height="6" viewBox="0 0 4 6" fill="none" xmlns="http://www.w3.org/2000/svg">
<path d="M2.32325 3.00194L0.45049 1.1291C0.355334 1.03403 0.307863 0.917767 0.307863 0.78031C0.307863 0.642866 0.355347 0.526654 0.45049 0.431605L0.739455 0.142546C0.834463 0.0475242 0.950743 0 1.08815 0C1.22555 0 1.34178 0.0475242 1.43693 0.142546L3.94943 2.65122C4.0445 2.74628 4.09204 2.86254 4.09204 3.00001C4.09204 3.13748 4.04452 3.25364 3.94943 3.34874L1.43695 5.85741C1.34179 5.95248 1.22558 6 1.08816 6C0.950743 6 0.834477 5.95248 0.739469 5.85741L0.450504 5.56841C0.355347 5.4734 0.307877 5.3578 0.307877 5.22157C0.307877 5.08544 0.355361 4.96854 0.450504 4.87093L2.32325 3.00194Z" fill="#B5D1C2"/>
</svg>
