<svg width="22" height="18" viewBox="0 0 22 18" fill="none" xmlns="http://www.w3.org/2000/svg">
<path d="M20.0664 0.5H1.93359C0.868742 0.5 0 1.38034 0 2.46154V15.5385C0 16.616 0.864875 17.5 1.93359 17.5H20.0664C21.1286 17.5 22 16.6226 22 15.5385V2.46154C22 1.384 21.1351 0.5 20.0664 0.5ZM19.7994 1.80769L11.041 10.6927L2.20683 1.80769H19.7994ZM1.28906 15.2677V2.72608L7.49714 8.96988L1.28906 15.2677ZM2.20056 16.1923L8.41255 9.89054L10.5892 12.0797C10.8412 12.3331 11.2478 12.3323 11.4987 12.0777L13.6211 9.92467L19.7994 16.1923H2.20056ZM20.7109 15.2676L14.5326 9L20.7109 2.73232V15.2676Z" fill="black" fill-opacity="0.6"/>
</svg>
