<svg width="60" height="58" viewBox="0 0 60 58" fill="none" xmlns="http://www.w3.org/2000/svg">
<g filter="url(#filter0_d)">
<path d="M31.8281 28C31.8281 30.1143 30.1143 31.8281 28 31.8281C25.8857 31.8281 24.1719 30.1143 24.1719 28C24.1719 25.8857 25.8857 24.1719 28 24.1719C30.1143 24.1719 31.8281 25.8857 31.8281 28Z" fill="white"/>
<path d="M36.9526 21.2269C36.7686 20.7282 36.475 20.2769 36.0936 19.9064C35.7231 19.5249 35.272 19.2313 34.7731 19.0473C34.3684 18.8901 33.7605 18.7031 32.6408 18.6521C31.4296 18.5969 31.0664 18.585 28 18.585C24.9333 18.585 24.5701 18.5966 23.3592 18.6518C22.2395 18.7031 21.6313 18.8901 21.2269 19.0473C20.728 19.2313 20.2766 19.5249 19.9064 19.9064C19.525 20.2769 19.2314 20.7279 19.0471 21.2269C18.8899 21.6315 18.7028 22.2397 18.6519 23.3594C18.5966 24.5704 18.5847 24.9335 18.5847 28.0002C18.5847 31.0667 18.5966 31.4298 18.6519 32.6411C18.7028 33.7607 18.8899 34.3687 19.0471 34.7733C19.2314 35.2723 19.5247 35.7233 19.9061 36.0938C20.2766 36.4753 20.7277 36.7689 21.2266 36.9529C21.6313 37.1104 22.2395 37.2974 23.3592 37.3484C24.5701 37.4036 24.933 37.4152 27.9997 37.4152C31.0667 37.4152 31.4299 37.4036 32.6405 37.3484C33.7602 37.2974 34.3684 37.1104 34.7731 36.9529C35.7747 36.5665 36.5663 35.7749 36.9526 34.7733C37.1098 34.3687 37.2969 33.7607 37.3481 32.6411C37.4034 31.4298 37.415 31.0667 37.415 28.0002C37.415 24.9335 37.4034 24.5704 37.3481 23.3594C37.2972 22.2397 37.1101 21.6315 36.9526 21.2269ZM28 33.8972C24.7429 33.8972 22.1025 31.2571 22.1025 27.9999C22.1025 24.7428 24.7429 22.1027 28 22.1027C31.2568 22.1027 33.8972 24.7428 33.8972 27.9999C33.8972 31.2571 31.2568 33.8972 28 33.8972ZM34.1304 23.2477C33.3693 23.2477 32.7522 22.6307 32.7522 21.8696C32.7522 21.1085 33.3693 20.4914 34.1304 20.4914C34.8915 20.4914 35.5085 21.1085 35.5085 21.8696C35.5082 22.6307 34.8915 23.2477 34.1304 23.2477Z" fill="white"/>
<path d="M28 8C16.956 8 8 16.956 8 28C8 39.044 16.956 48 28 48C39.044 48 48 39.044 48 28C48 16.956 39.044 8 28 8ZM39.4151 32.7348C39.3596 33.9573 39.1652 34.792 38.8813 35.5226C38.2847 37.0652 37.0652 38.2847 35.5226 38.8813C34.7923 39.1652 33.9573 39.3593 32.7351 39.4151C31.5104 39.4709 31.1192 39.4844 28.0003 39.4844C24.8811 39.4844 24.4902 39.4709 23.2652 39.4151C22.043 39.3593 21.208 39.1652 20.4777 38.8813C19.7111 38.593 19.0172 38.141 18.4434 37.5566C17.8593 36.9832 17.4073 36.2889 17.119 35.5226C16.8351 34.7923 16.6407 33.9573 16.5852 32.7351C16.5287 31.5101 16.5156 31.1189 16.5156 28C16.5156 24.8811 16.5287 24.4899 16.5849 23.2652C16.6404 22.0427 16.8345 21.208 17.1183 20.4774C17.4067 19.7111 17.859 19.0168 18.4434 18.4434C19.0168 17.859 19.7111 17.407 20.4774 17.1187C21.208 16.8348 22.0427 16.6407 23.2652 16.5849C24.4899 16.5291 24.8811 16.5156 28 16.5156C31.1189 16.5156 31.5101 16.5291 32.7348 16.5852C33.9573 16.6407 34.792 16.8348 35.5226 17.1183C36.2889 17.4067 36.9832 17.859 37.5569 18.4434C38.141 19.0172 38.5933 19.7111 38.8813 20.4774C39.1655 21.208 39.3596 22.0427 39.4154 23.2652C39.4713 24.4899 39.4844 24.8811 39.4844 28C39.4844 31.1189 39.4713 31.5101 39.4151 32.7348Z" fill="white"/>
</g>
<defs>
<filter id="filter0_d" x="0" y="0" width="60" height="60" filterUnits="userSpaceOnUse" color-interpolation-filters="sRGB">
<feFlood flood-opacity="0" result="BackgroundImageFix"/>
<feColorMatrix in="SourceAlpha" type="matrix" values="0 0 0 0 0 0 0 0 0 0 0 0 0 0 0 0 0 0 127 0"/>
<feOffset dx="2" dy="2"/>
<feGaussianBlur stdDeviation="5"/>
<feColorMatrix type="matrix" values="0 0 0 0 0 0 0 0 0 0 0 0 0 0 0 0 0 0 0.25 0"/>
<feBlend mode="normal" in2="BackgroundImageFix" result="effect1_dropShadow"/>
<feBlend mode="normal" in="SourceGraphic" in2="effect1_dropShadow" result="shape"/>
</filter>
</defs>
</svg>
