<svg width="60" height="58" viewBox="0 0 60 58" fill="none" xmlns="http://www.w3.org/2000/svg">
<g filter="url(#filter0_d)">
<path d="M28 8C16.956 8 8 16.956 8 28C8 39.044 16.956 48 28 48C39.044 48 48 39.044 48 28C48 16.956 39.044 8 28 8ZM22.1882 38.2344H17.3173V23.5801H22.1882V38.2344ZM19.7529 21.5791H19.7212C18.0867 21.5791 17.0295 20.4539 17.0295 19.0477C17.0295 17.6097 18.119 16.5156 19.7853 16.5156C21.4515 16.5156 22.4769 17.6097 22.5087 19.0477C22.5087 20.4539 21.4515 21.5791 19.7529 21.5791ZM39.7517 38.2344H34.8814V30.3947C34.8814 28.4245 34.1761 27.0808 32.4138 27.0808C31.0682 27.0808 30.2668 27.9872 29.9147 28.8621C29.7859 29.1752 29.7545 29.6129 29.7545 30.0508V38.2344H24.8839C24.8839 38.2344 24.9476 24.955 24.8839 23.5801H29.7545V25.655C30.4017 24.6565 31.5599 23.2362 34.1441 23.2362C37.3488 23.2362 39.7517 25.3306 39.7517 29.8317V38.2344Z" fill="white"/>
</g>
<defs>
<filter id="filter0_d" x="0" y="0" width="60" height="60" filterUnits="userSpaceOnUse" color-interpolation-filters="sRGB">
<feFlood flood-opacity="0" result="BackgroundImageFix"/>
<feColorMatrix in="SourceAlpha" type="matrix" values="0 0 0 0 0 0 0 0 0 0 0 0 0 0 0 0 0 0 127 0"/>
<feOffset dx="2" dy="2"/>
<feGaussianBlur stdDeviation="5"/>
<feColorMatrix type="matrix" values="0 0 0 0 0 0 0 0 0 0 0 0 0 0 0 0 0 0 0.25 0"/>
<feBlend mode="normal" in2="BackgroundImageFix" result="effect1_dropShadow"/>
<feBlend mode="normal" in="SourceGraphic" in2="effect1_dropShadow" result="shape"/>
</filter>
</defs>
</svg>
