<svg width="18" height="18" viewBox="0 0 18 18" fill="none" xmlns="http://www.w3.org/2000/svg">
<path d="M12.6812 16.2523C12.4697 16.2523 12.2591 16.2154 12.0575 16.1434C10.6985 15.6529 9.3575 14.9275 8.0714 13.9879C7.2956 13.4209 6.5495 12.7801 5.852 12.0826C5.1815 11.4121 4.5623 10.6957 4.0124 9.95318C3.0746 8.68688 2.3447 7.36388 1.8434 6.02108C1.5923 5.34968 1.7579 4.58738 2.2655 4.08068L4.0601 2.28608C4.7765 1.56968 5.9411 1.56968 6.6575 2.28608L8.381 4.00958C8.7266 4.35518 8.9174 4.81688 8.9174 5.30828C8.9174 5.79968 8.7266 6.26138 8.381 6.60698L8.057 6.93098C8.4845 7.47098 8.9507 7.99388 9.4466 8.48978C9.9713 9.01448 10.5275 9.50678 11.1008 9.95498L11.4149 9.64088C11.7605 9.29528 12.2222 9.10448 12.7136 9.10448C13.205 9.10448 13.6667 9.29528 14.0123 9.64088L15.7358 11.3644C16.0814 11.71 16.2722 12.1717 16.2722 12.6631C16.2722 13.1545 16.0814 13.6162 15.7358 13.9618L13.9808 15.7168C13.7333 15.9634 13.4228 16.1344 13.0817 16.2109C12.9494 16.2379 12.8153 16.2523 12.6812 16.2523ZM5.3597 2.89898C5.1842 2.89898 5.0087 2.96558 4.8755 3.09878L3.0809 4.89338C2.8919 5.08238 2.8298 5.36588 2.9234 5.61608C3.3869 6.85808 4.0655 8.08568 4.9394 9.26558C5.456 9.96308 6.0374 10.6363 6.6674 11.2663C7.3226 11.9215 8.0246 12.5236 8.7518 13.0564C9.9497 13.9321 11.1935 14.6053 12.449 15.0589C12.6974 15.1489 12.9791 15.0859 13.1654 14.8987L14.9204 13.1437C15.0491 13.015 15.1193 12.8431 15.1193 12.6595C15.1193 12.4759 15.0482 12.304 14.9204 12.1753L13.1969 10.4518C12.9296 10.1845 12.4958 10.1845 12.2285 10.4518L11.6885 10.9918C11.5544 11.1259 11.3771 11.2069 11.189 11.2204C11 11.2339 10.8128 11.179 10.6607 11.0647C9.9542 10.5337 9.2711 9.94058 8.6312 9.30068C8.0219 8.69138 7.454 8.04338 6.9437 7.37288C6.7061 7.06148 6.7367 6.61778 7.013 6.34058L7.5656 5.78798C7.6943 5.65928 7.7645 5.48738 7.7645 5.30378C7.7645 5.12018 7.6934 4.94828 7.5656 4.81958L5.8439 3.09878C5.7107 2.96558 5.5352 2.89898 5.3597 2.89898Z" fill="white"/>
</svg>
