<svg width="22" height="22" viewBox="0 0 22 22" fill="none" xmlns="http://www.w3.org/2000/svg">
<g clip-path="url(#clip0)">
<path d="M21.4227 17.0865L16.9698 14.1842C16.4047 13.8189 15.6473 13.9391 15.2295 14.4605L13.9324 16.0904C13.7657 16.3052 13.4627 16.3675 13.2216 16.2366L12.9748 16.1037C12.1569 15.668 11.1392 15.1255 9.08876 13.1208C7.0383 11.1161 6.48215 10.1207 6.03633 9.32276L5.90104 9.08162C5.76524 8.84598 5.82779 8.54857 6.04767 8.38435L7.71427 7.11704C8.24752 6.7087 8.37069 5.9686 7.9973 5.41615L5.02774 1.06417C4.64508 0.501598 3.87734 0.332718 3.28493 0.680765L1.4229 1.77395C0.837838 2.11011 0.408601 2.65454 0.225195 3.29315C-0.445319 5.68089 0.0591021 9.80177 6.27026 15.8729C11.2111 20.7014 14.8893 21.9999 17.4175 21.9999C17.9993 22.0024 18.5789 21.9284 19.1406 21.78C19.7941 21.6009 20.3513 21.1814 20.695 20.6094L21.8146 18.7906C22.1713 18.2115 21.9986 17.4607 21.4227 17.0865ZM21.1829 18.423L20.0659 20.2428C19.819 20.6557 19.4183 20.9592 18.9477 21.0899C16.6923 21.6951 12.7519 21.1938 6.78899 15.3659C0.826024 9.53808 0.313182 5.68736 0.932398 3.48273C1.06627 3.0222 1.37723 2.63006 1.80015 2.38846L3.66218 1.2967C3.91923 1.14554 4.25244 1.21881 4.41849 1.46294L6.0316 3.82989L7.38552 5.81454C7.54766 6.05418 7.49439 6.37535 7.26308 6.55267L5.59609 7.81998C5.08879 8.1991 4.94392 8.88507 5.25626 9.4295L5.38863 9.66455C5.85717 10.5044 6.4397 11.5492 8.56642 13.6274C10.6931 15.7056 11.7618 16.275 12.6208 16.7328L12.8616 16.8626C13.4186 17.1678 14.1206 17.0262 14.5085 16.5304L15.8052 14.9012C15.9866 14.6753 16.3151 14.6232 16.5604 14.7815L21.0129 17.6838C21.2628 17.846 21.3378 18.1718 21.1829 18.423Z" fill="black" fill-opacity="0.6"/>
</g>
<defs>
<clipPath id="clip0">
<rect width="22" height="22" fill="white"/>
</clipPath>
</defs>
</svg>
