<svg width="60" height="58" viewBox="0 0 60 58" fill="none" xmlns="http://www.w3.org/2000/svg">
<g filter="url(#filter0_d)">
<path d="M28 48C39.0483 48 48 39.0483 48 28C48 16.9517 39.0483 8 28 8C16.9517 8 8 16.9517 8 28C8 39.0483 16.9517 48 28 48ZM17.1517 27.5667L36.435 20.1317C37.33 19.8083 38.1117 20.35 37.8217 21.7033L37.8233 21.7017L34.54 37.17C34.2967 38.2667 33.645 38.5333 32.7333 38.0167L27.7333 34.3317L25.3217 36.655C25.055 36.9217 24.83 37.1467 24.3133 37.1467L24.6683 32.0583L33.935 23.6867C34.3383 23.3317 33.845 23.1317 33.3133 23.485L21.8617 30.695L16.925 29.155C15.8533 28.815 15.83 28.0833 17.1517 27.5667Z" fill="white"/>
</g>
<defs>
<filter id="filter0_d" x="0" y="0" width="60" height="60" filterUnits="userSpaceOnUse" color-interpolation-filters="sRGB">
<feFlood flood-opacity="0" result="BackgroundImageFix"/>
<feColorMatrix in="SourceAlpha" type="matrix" values="0 0 0 0 0 0 0 0 0 0 0 0 0 0 0 0 0 0 127 0"/>
<feOffset dx="2" dy="2"/>
<feGaussianBlur stdDeviation="5"/>
<feColorMatrix type="matrix" values="0 0 0 0 0 0 0 0 0 0 0 0 0 0 0 0 0 0 0.25 0"/>
<feBlend mode="normal" in2="BackgroundImageFix" result="effect1_dropShadow"/>
<feBlend mode="normal" in="SourceGraphic" in2="effect1_dropShadow" result="shape"/>
</filter>
</defs>
</svg>
