<svg width="8" height="13" viewBox="0 0 8 13" fill="none" xmlns="http://www.w3.org/2000/svg">
<path opacity="0.2" d="M4.26066 6.34629L0.301522 2.38698C0.100355 2.18601 0 1.94022 0 1.64963C0 1.35906 0.100383 1.11338 0.301522 0.912442L0.912413 0.301351C1.11327 0.100469 1.35909 0 1.64957 0C1.94005 0 2.18576 0.100469 2.38693 0.301351L7.69851 5.60486C7.8995 5.80582 8 6.05159 8 6.34221C8 6.63283 7.89953 6.8784 7.69851 7.07945L2.38695 12.383C2.18579 12.5839 1.94011 12.6844 1.6496 12.6844C1.35909 12.6844 1.1133 12.5839 0.912442 12.383L0.30155 11.772C0.100383 11.5711 2.76566e-05 11.3267 2.76566e-05 11.0387C2.76566e-05 10.751 0.100412 10.5038 0.30155 10.2975L4.26066 6.34629Z" fill="#222222"/>
</svg>
