<svg width="6" height="5" viewBox="0 0 6 5" fill="none" xmlns="http://www.w3.org/2000/svg">
<path d="M2.57505 2.60276L4.13575 1.04213C4.21497 0.962829 4.31185 0.92327 4.4264 0.92327C4.54094 0.92327 4.63778 0.96284 4.71699 1.04213L4.95787 1.28293C5.03706 1.3621 5.07666 1.459 5.07666 1.57351C5.07666 1.68801 5.03706 1.78486 4.95787 1.86416L2.86731 3.95791C2.78809 4.03714 2.69121 4.07675 2.57665 4.07675C2.4621 4.07675 2.3653 4.03715 2.28605 3.95791L0.195482 1.86417C0.116264 1.78487 0.0766602 1.68803 0.0766602 1.57352C0.0766602 1.459 0.116264 1.36211 0.195482 1.28294L0.43632 1.04214C0.515494 0.96284 0.611831 0.923281 0.725355 0.923281C0.838789 0.923281 0.936207 0.962851 1.01755 1.04214L2.57505 2.60276Z" fill="white"/>
</svg>
