<svg width="20" height="15" viewBox="0 0 20 15" fill="none" xmlns="http://www.w3.org/2000/svg">
<path d="M16.875 0H3.125C1.40203 0 0 1.40203 0 3.125V11.875C0 13.598 1.40203 15 3.125 15H16.875C18.598 15 20 13.598 20 11.875V3.125C20 1.40203 18.598 0 16.875 
0ZM18.75 11.875C18.75 12.9089 17.9089 13.75 16.875 13.75H3.125C2.09109 13.75 1.25 12.9089 1.25 11.875V3.125C1.25 2.09109 2.09109 1.25 3.125 1.25H16.875C17.9089 
1.25 18.75 2.09109 18.75 3.125V11.875ZM17.3169 3.56687L13.3837 7.5L17.3169 11.4331C17.5611 11.6773 17.5611 12.0728 17.3169 12.3169C17.1948 12.4389 17.0348 12.5 
16.875 12.5C16.7152 12.5 16.5552 12.4389 16.4331 12.3169L12.5 8.38375L10.4419 10.4419C10.3198 10.5639 10.1598 10.625 10 10.625C9.84016 10.625 9.68016 10.5639 
9.55813 10.4419L7.5 8.38375L3.56687 12.3169C3.44484 12.4389 3.28484 12.5 3.125 12.5C2.96516 12.5 2.80516 12.4389 2.68313 12.3169C2.43891 12.0727 2.43891 11.6772 
2.68313 11.4331L6.61625 7.5L2.68313 3.56687C2.43891 3.32266 2.43891 2.92719 2.68313 2.68313C2.92734 2.43906 3.32281 2.43891 3.56687 2.68313L10 9.11625L16.4331 
2.68313C16.6773 2.43891 17.0728 2.43891 17.3169 2.68313C17.5609 2.92734 17.5611 3.32281 17.3169 3.56687Z" fill="#222222"/>
</svg>
