<svg width="60" height="58" viewBox="0 0 60 58" fill="none" xmlns="http://www.w3.org/2000/svg"><g filter="url(#filter0_d)"><path d="M48 28c0-11.047-8.953-20-20-20S8 16.953 8 28s8.953 20 20 20c.117 0 .234 0 .352-.008V32.43h-4.297v-5.008h4.297v-3.688c0-4.273 2.609-6.601 6.421-6.601 1.829 0 3.399.133 3.852.195v4.469H36c-2.07 0-2.477.984-2.477 2.43v3.187h4.961l-.648 5.008h-4.313v14.805C41.883 44.828 48 37.133 48 28z" fill="#fff"/></g><defs><filter id="filter0_d" x="0" y="0" width="60" height="60" filterUnits="userSpaceOnUse" color-interpolation-filters="sRGB"><feFlood flood-opacity="0" result="BackgroundImageFix"/><feColorMatrix in="SourceAlpha" values="0 0 0 0 0 0 0 0 0 0 0 0 0 0 0 0 0 0 127 0"/><feOffset dx="2" dy="2"/><feGaussianBlur stdDeviation="5"/><feColorMatrix values="0 0 0 0 0 0 0 0 0 0 0 0 0 0 0 0 0 0 0.25 0"/><feBlend in2="BackgroundImageFix" result="effect1_dropShadow"/><feBlend in="SourceGraphic" in2="effect1_dropShadow" result="shape"/></filter></defs></svg>