<svg width="36" height="36" viewBox="0 0 36 36" fill="none" xmlns="http://www.w3.org/2000/svg">
<g clip-path="url(#clip0)">
<path d="M36 18C36 8.05888 27.9411 0 18 0C8.05888 0 0 8.05888 0 18C0 27.9411 8.05888 36 18 36C27.9411 36 36 27.9411 36 18Z" fill="url(#paint0_linear)"/>
<path opacity="0.1" d="M31.5474 6.15777C28.9232 10.9751 25.2119 15.9441 20.5745 20.5815C15.9371 25.2188 10.9682 28.923 6.15794 31.5472C5.85636 31.2851 5.56346 31.012 5.27925 30.7278C3.56134 29.0672 2.19121 27.0812 1.24876 24.8857C0.306314 22.6901 -0.18959 20.3289 -0.210034 17.9397C-0.230479 15.5505 0.224945 13.1811 1.12968 10.9697C2.03442 8.75834 3.37036 6.74922 5.05961 5.0595C6.74886 3.36978 8.75761 2.03327 10.9687 1.12792C13.1799 0.222569 15.5491 -0.233516 17.9383 -0.213739C20.3275 -0.193961 22.6889 0.301283 24.8847 1.24312C27.0805 2.18495 29.0669 3.55452 30.7279 5.27198C31.0121 5.55619 31.2853 5.85145 31.5474 6.15777Z" fill="white"/>
<path d="M22.2632 8.52588H13.7369C12.355 8.52588 11.0297 9.07484 10.0525 10.052C9.07533 11.0292 8.52637 12.3545 8.52637 13.7364V22.2627C8.52637 23.6446 9.07533 24.97 10.0525 25.9471C11.0297 26.9243 12.355 27.4732 13.7369 27.4732H22.2632C23.6451 27.4732 24.9704 26.9243 25.9476 25.9471C26.9248 24.97 27.4737 23.6446 27.4737 22.2627V13.7364C27.4737 12.3545 26.9248 11.0292 25.9476 10.052C24.9704 9.07484 23.6451 8.52588 22.2632 8.52588ZM25.8158 21.5143C25.8158 22.655 25.3627 23.749 24.5561 24.5556C23.7495 25.3622 22.6555 25.8154 21.5148 25.8154H14.4853C13.3446 25.8154 12.2506 25.3622 11.444 24.5556C10.6374 23.749 10.1843 22.655 10.1843 21.5143V14.4848C10.1843 13.3441 10.6374 12.2501 11.444 11.4435C12.2506 10.6369 13.3446 10.1838 14.4853 10.1838H21.5148C22.6555 10.1838 23.7495 10.6369 24.5561 11.4435C25.3627 12.2501 25.8158 13.3441 25.8158 14.4848V21.5143Z" fill="white"/>
<path d="M21.4556 14.5795L21.4106 14.5345L21.3727 14.4966C20.4772 13.6042 19.2643 13.1034 18.0001 13.104C17.3616 13.1083 16.7303 13.2384 16.1422 13.4868C15.554 13.7352 15.0206 14.0971 14.5724 14.5517C14.1241 15.0063 13.7698 15.5448 13.5298 16.1364C13.2897 16.728 13.1685 17.3611 13.1732 17.9995C13.1723 19.2952 13.683 20.5388 14.5943 21.4598C15.0407 21.9116 15.5726 22.27 16.1589 22.5139C16.7453 22.7579 17.3744 22.8827 18.0095 22.8808C18.9622 22.8609 19.8885 22.5641 20.6754 22.0267C21.4623 21.4894 22.0758 20.7346 22.4411 19.8546C22.8065 18.9745 22.9078 18.0072 22.7328 17.0705C22.5578 16.1338 22.114 15.2683 21.4556 14.5795ZM18.0001 21.2111C17.363 21.22 16.7377 21.0393 16.2037 20.6919C15.6697 20.3445 15.2511 19.846 15.0011 19.26C14.7511 18.6741 14.681 18.0269 14.7998 17.401C14.9186 16.7751 15.2209 16.1987 15.6682 15.745C16.1155 15.2913 16.6876 14.981 17.3118 14.8534C17.936 14.7257 18.584 14.7867 19.1735 15.0284C19.7629 15.2701 20.2672 15.6816 20.6221 16.2107C20.977 16.7398 21.1666 17.3624 21.1666 17.9995C21.1698 18.4184 21.0903 18.8337 20.9328 19.2218C20.7754 19.61 20.5429 19.9633 20.2489 20.2615C19.9548 20.5598 19.6048 20.7971 19.219 20.9601C18.8331 21.123 18.4189 21.2083 18.0001 21.2111Z" fill="white"/>
<path d="M24.2598 12.8793C24.261 13.0313 24.2323 13.182 24.1752 13.3228C24.1181 13.4637 24.0338 13.5919 23.9272 13.7002C23.8205 13.8084 23.6935 13.8945 23.5534 13.9536C23.4134 14.0127 23.2631 14.0436 23.1111 14.0445C22.9604 14.0445 22.8112 14.0145 22.6722 13.9564C22.5331 13.8982 22.407 13.8131 22.3011 13.7059C22.1407 13.5431 22.0315 13.3367 21.9872 13.1125C21.9429 12.8883 21.9654 12.6559 22.0519 12.4444C22.1384 12.2328 22.2851 12.0513 22.4738 11.9223C22.6625 11.7933 22.8849 11.7225 23.1135 11.7188C23.381 11.7187 23.64 11.8126 23.8453 11.984L23.869 12.0077C23.9072 12.0388 23.9421 12.0737 23.9732 12.1119L23.9993 12.1403C24.1688 12.3492 24.2609 12.6103 24.2598 12.8793Z" fill="white"/>
</g>
<defs>
<linearGradient id="paint0_linear" x1="5.27211" y1="5.27211" x2="30.7279" y2="30.7279" gradientUnits="userSpaceOnUse">
<stop stop-color="#FAE100"/>
<stop offset="0.15" stop-color="#FCB720"/>
<stop offset="0.3" stop-color="#FF7950"/>
<stop offset="0.5" stop-color="#FF1C74"/>
<stop offset="1" stop-color="#6C1CD1"/>
</linearGradient>
<clipPath id="clip0">
<rect width="36" height="36" fill="white"/>
</clipPath>
</defs>
</svg>
