<svg width="60" height="58" viewBox="0 0 60 58" fill="none" xmlns="http://www.w3.org/2000/svg"><g filter="url(#filter0_d)"><path d="M28 8C16.956 8 8 16.956 8 28s8.956 20 20 20 20-8.956 20-20S39.044 8 28 8zm-5.812 30.234h-4.87V23.58h4.87v14.654zM19.753 21.58h-.032c-1.634 0-2.692-1.125-2.692-2.531 0-1.438 1.09-2.532 2.756-2.532 1.666 0 2.692 1.094 2.724 2.532 0 1.406-1.058 2.531-2.756 2.531zm19.999 16.655h-4.87v-7.84c0-1.97-.706-3.313-2.468-3.313-1.346 0-2.147.906-2.5 1.781-.128.313-.16.75-.16 1.189v8.183h-4.87s.064-13.279 0-14.654h4.87v2.075c.648-.998 1.806-2.419 4.39-2.419 3.205 0 5.608 2.095 5.608 6.596v8.402z" fill="#fff"/></g><defs><filter id="filter0_d" x="0" y="0" width="60" height="60" filterUnits="userSpaceOnUse" color-interpolation-filters="sRGB"><feFlood flood-opacity="0" result="BackgroundImageFix"/><feColorMatrix in="SourceAlpha" values="0 0 0 0 0 0 0 0 0 0 0 0 0 0 0 0 0 0 127 0"/><feOffset dx="2" dy="2"/><feGaussianBlur stdDeviation="5"/><feColorMatrix values="0 0 0 0 0 0 0 0 0 0 0 0 0 0 0 0 0 0 0.25 0"/><feBlend in2="BackgroundImageFix" result="effect1_dropShadow"/><feBlend in="SourceGraphic" in2="effect1_dropShadow" result="shape"/></filter></defs></svg>