<svg width="316" height="316" viewBox="0 0 316 316" fill="none" xmlns="http://www.w3.org/2000/svg">
<path d="M236.39 27.7629L215.66 48.4936C222.245 51.0828 227.404 56.5233 229.608 63.2907L250.763 42.136L236.39 27.7629Z" fill="#009846"/>
<path d="M162.014 75.0925H224.224V93.0638H162.014V75.0925Z" fill="#009846"/>
<path d="M162.014 75.0925H182.812V93.0638H162.014V75.0925Z" fill="#0D5A23"/>
<path d="M272.996 26.9144L256.451 43.4594C255.246 44.6648 253.293 44.6648 252.087 43.4594L235.066 26.4386C233.861 25.2332 233.861 23.2798 235.066 22.0745L251.611 5.52951C252.817 4.32415 254.77 4.32415 255.975 5.52951L272.996 22.5503C274.202 23.7557 274.202 25.7097 272.996 26.9144Z" fill="#0D5A23"/>
<path d="M250.627 26.4385C249.422 25.2331 249.422 23.2797 250.627 22.0743L261.574 11.1273L255.975 5.52878C254.77 4.32341 252.817 4.32341 251.611 5.52878L235.066 22.0737C233.861 23.2791 233.861 25.2325 235.066 26.4379L252.087 43.4587C253.293 44.664 255.246 44.664 256.451 43.4587L262.05 37.8601L250.627 26.4385Z" fill="#003F1D"/>
<path d="M229.541 75.0925H156.698C155.675 75.0925 154.846 74.2636 154.846 73.2409V48.0825C154.846 47.0598 155.675 46.231 156.698 46.231H206.984C220.464 46.231 231.392 57.1589 231.392 70.6389V73.2409C231.392 74.2636 230.563 75.0925 229.541 75.0925Z" fill="#E7F2EA"/>
<path d="M175.281 73.2409V48.0825C175.281 47.0598 176.11 46.231 177.133 46.231H156.698C155.675 46.231 154.846 47.0598 154.846 48.0825V73.2409C154.846 74.2636 155.675 75.0925 156.698 75.0925H177.133C176.11 75.0925 175.281 74.2636 175.281 73.2409Z" fill="#92E3A9"/>
<path d="M9.36462 267.221C7.66057 267.221 6.27869 268.603 6.27869 270.307V286.142H138.027V273.528C138.027 271.158 138.821 268.98 140.144 267.221H9.36462Z" fill="#E6F2EA"/>
<path d="M27.2631 270.307C27.2631 268.603 28.6449 267.221 30.349 267.221H9.36462C7.66057 267.221 6.27869 268.603 6.27869 270.307V286.142H27.2631V270.307Z" fill="#C2FAE3"/>
<path d="M42.1061 270.247C45.8147 266.539 43.94 258.651 37.9188 252.63C31.8977 246.609 24.0102 244.734 20.3016 248.443C16.593 252.151 18.4676 260.039 24.4888 266.06C30.5099 272.081 38.3975 273.956 42.1061 270.247Z" fill="#16DC71"/>
<path d="M61.4578 266.062C67.4789 260.041 69.3536 252.154 65.645 248.445C61.9364 244.737 54.0489 246.611 48.0277 252.632C42.0066 258.654 40.1319 266.541 43.8405 270.25C47.5491 273.958 55.4366 272.084 61.4578 266.062Z" fill="#16DC71"/>
<path d="M101.796 270.253C105.505 266.545 103.63 258.657 97.609 252.636C91.5879 246.615 83.7004 244.74 79.9918 248.449C76.2832 252.157 78.1578 260.045 84.179 266.066C90.2001 272.087 98.0876 273.962 101.796 270.253Z" fill="#16DC71"/>
<path d="M121.147 266.069C127.168 260.048 129.043 252.16 125.334 248.452C121.625 244.743 113.738 246.618 107.717 252.639C101.696 258.66 99.821 266.548 103.53 270.256C107.238 273.965 115.126 272.09 121.147 266.069Z" fill="#16DC71"/>
<path d="M6.27869 286.143V305.199C6.27869 308.608 9.04184 311.371 12.4506 311.371H138.027V286.143H6.27869Z" fill="#BB5D4C"/>
<path d="M27.2631 305.199V286.143H6.27869V305.199C6.27869 308.608 9.04184 311.371 12.4506 311.371H33.4349C30.0262 311.371 27.2631 308.608 27.2631 305.199Z" fill="#A44F3E"/>
<path d="M178.569 157.878V174.717C178.569 176.651 180.138 178.22 182.073 178.22H192.634C194.568 178.22 196.137 176.651 196.137 174.717V157.878H178.569Z" fill="#009846"/>
<path d="M164.498 121.308H210.209V141.464H164.498V121.308Z" fill="#009846"/>
<path d="M164.498 121.308H180.18V141.464H164.498V121.308Z" fill="#0D5A23"/>
<path d="M219.515 158.496H155.192C153.258 158.496 151.689 156.927 151.689 154.992V144.351C151.689 142.416 153.258 140.847 155.192 140.847H219.514C221.449 140.847 223.018 142.416 223.018 144.351V154.992C223.018 156.927 221.449 158.496 219.515 158.496Z" fill="#C9E7D2"/>
<path d="M172.46 154.992V144.351C172.46 142.416 174.028 140.847 175.963 140.847H155.192C153.258 140.847 151.689 142.416 151.689 144.351V154.992C151.689 156.927 153.258 158.496 155.192 158.496H175.963C174.028 158.496 172.46 156.927 172.46 154.992Z" fill="#92E3A9"/>
<path d="M294.359 152.715L250.581 98.7702C247.651 95.1603 243.249 93.0637 238.6 93.0637H148.714C147.01 93.0637 145.629 94.4456 145.629 96.1497V118.839C145.629 120.543 147.01 121.925 148.714 121.925H228.552L252.011 156.965V182.787H297.808V162.438C297.808 158.897 296.59 155.464 294.359 152.715Z" fill="#E7F2EA"/>
<path d="M163.821 118.839V96.1497C163.821 94.4456 165.203 93.0637 166.907 93.0637H148.714C147.01 93.0637 145.629 94.4456 145.629 96.1497V118.839C145.629 120.543 147.01 121.925 148.714 121.925H166.907C165.202 121.925 163.821 120.544 163.821 118.839Z" fill="#92E3A9"/>
<path d="M230.532 220.853H252.011V263.017H230.532V220.853Z" fill="#009846"/>
<path d="M252.011 201.007H145.737C143.802 201.007 142.233 202.576 142.233 204.511V217.349C142.233 219.283 143.802 220.852 145.737 220.852H252.011V201.007H252.011Z" fill="#C9E7D2"/>
<path d="M162.938 217.349V204.511C162.938 202.576 164.506 201.007 166.441 201.007H145.737C143.802 201.007 142.233 202.576 142.233 204.511V217.349C142.233 219.283 143.802 220.852 145.737 220.852H166.442C164.506 220.853 162.938 219.284 162.938 217.349Z" fill="#92E3A9"/>
<path d="M138.027 294.787V311.371H164.455C166.159 311.371 167.541 309.989 167.541 308.285V294.787H138.027Z" fill="#009846"/>
<path d="M138.027 294.787H153.68V311.371H138.027V294.787Z" fill="#0D5A23"/>
<path d="M268.294 294.787V308.285C268.294 309.989 269.676 311.371 271.38 311.371H294.721C296.425 311.371 297.807 309.989 297.807 308.285V294.787H268.294Z" fill="#009846"/>
<path d="M282.995 308.285V294.787H268.295V308.285C268.295 309.989 269.676 311.371 271.38 311.371H286.081C284.377 311.371 282.995 309.989 282.995 308.285Z" fill="#0D5A23"/>
<path d="M289.398 202.048C292.398 202.048 295.244 202.703 297.808 203.87V182.787H252.011V263.017H297.808V240.872C295.245 242.039 292.399 242.694 289.398 242.694C278.174 242.694 269.075 233.595 269.075 222.371C269.075 211.147 278.174 202.048 289.398 202.048Z" fill="#92E3A9"/>
<path d="M208.807 263.016V248.299C208.807 246.365 207.239 244.796 205.304 244.796H169.318C167.383 244.796 165.814 246.365 165.814 248.299V263.016H208.807Z" fill="#009846"/>
<path d="M181.453 263.016V248.299C181.453 246.365 183.022 244.796 184.957 244.796H169.317C167.383 244.796 165.814 246.365 165.814 248.299V263.016H181.453Z" fill="#0D5A23"/>
<path d="M297.808 295.404H138.027V273.528C138.027 267.723 142.733 263.016 148.539 263.016H297.808V295.404Z" fill="#C9E7D2"/>
<path d="M166.731 263.016H148.539C142.734 263.016 138.027 267.722 138.027 273.528V295.404H156.219V273.528C156.22 267.723 160.926 263.016 166.731 263.016Z" fill="#92E3A9"/>
<path d="M289.398 242.693C300.622 242.693 309.721 233.595 309.721 222.371C309.721 211.147 300.622 202.048 289.398 202.048C278.174 202.048 269.075 211.147 269.075 222.371C269.075 233.595 278.174 242.693 289.398 242.693Z" fill="#009846"/>
<path d="M285.846 222.371C285.846 214.137 290.745 207.053 297.784 203.859C295.227 202.699 292.39 202.047 289.398 202.047C278.174 202.047 269.075 211.146 269.075 222.37C269.075 233.594 278.174 242.693 289.398 242.693C292.389 242.693 295.226 242.042 297.784 240.881C290.745 237.688 285.846 230.603 285.846 222.371Z" fill="#0D5A23"/>
<path d="M16.0901 111.293V171.289C16.0901 172.392 16.6783 173.411 17.6331 173.962L69.5916 203.96C70.5464 204.511 71.7228 204.511 72.6775 203.96L124.636 173.962C125.591 173.411 126.179 172.392 126.179 171.289V111.293C126.179 110.191 125.591 109.172 124.636 108.621L72.6775 78.6223C71.7228 78.0712 70.5464 78.0712 69.5916 78.6223L17.6331 108.621C16.6783 109.172 16.0901 110.19 16.0901 111.293Z" fill="#B3DAFE"/>
<path d="M34.1391 120.24C34.1391 119.068 34.7643 117.985 35.7796 117.398L87.8097 87.3585L72.6769 78.6216C71.7221 78.0705 70.5458 78.0705 69.591 78.6216L17.6331 108.62C16.6783 109.171 16.0901 110.19 16.0901 111.292V171.289C16.0901 172.391 16.6783 173.41 17.6331 173.961L34.1391 183.491V120.24Z" fill="#8AC9FE"/>
<path d="M77.2293 149.913C83.0349 149.913 87.7413 145.207 87.7413 139.401C87.7413 133.596 83.0349 128.889 77.2293 128.889C71.4238 128.889 66.7174 133.596 66.7174 139.401C66.7174 145.207 71.4238 149.913 77.2293 149.913Z" fill="#16DC71"/>
<path d="M94.2674 91.0869C91.4574 93.5279 89.6725 97.1187 89.6725 101.133C89.6725 108.487 95.6339 114.449 102.988 114.449C109.474 114.449 114.872 109.807 116.055 103.666L94.2674 91.0869Z" fill="#16DC71"/>
<path d="M92.3702 139.401C92.3702 131.052 85.578 124.26 77.2293 124.26C68.8806 124.26 62.0885 131.052 62.0885 139.401C62.0885 147.75 68.8806 154.542 77.2293 154.542C85.578 154.541 92.3702 147.75 92.3702 139.401ZM77.2293 145.284C73.9854 145.284 71.3463 142.644 71.3463 139.4C71.3463 136.157 73.9854 133.517 77.2293 133.517C80.4733 133.517 83.1124 136.157 83.1124 139.4C83.1124 142.644 80.4733 145.284 77.2293 145.284Z" fill="black"/>
<path d="M15.3186 177.97L67.2765 207.968C68.4665 208.656 69.8008 208.999 71.1346 208.999C72.4683 208.999 73.8021 208.656 74.992 207.969L111.004 187.177L124.242 200.416C125.146 201.32 126.331 201.772 127.515 201.772C128.7 201.772 129.885 201.32 130.788 200.416C132.596 198.608 132.596 195.677 130.788 193.87L119.304 182.385L126.95 177.971C129.329 176.597 130.807 174.037 130.807 171.29V149.359C130.807 146.803 128.735 144.73 126.178 144.73C123.622 144.73 121.55 146.803 121.55 149.359V170.399L112.527 175.608L106.261 169.341C104.453 167.534 101.522 167.534 99.7147 169.341C97.9069 171.149 97.9069 174.08 99.7147 175.887L104.227 180.4L71.1346 199.506L20.719 170.399V112.184L71.1346 83.0759L87.3209 92.4214C85.8477 95.0592 85.0441 98.0501 85.0441 101.134C85.0441 111.028 93.0935 119.078 102.988 119.078C109.43 119.078 115.202 115.628 118.371 110.348L121.55 112.184V127.758C121.55 130.314 123.623 132.387 126.179 132.387C128.735 132.387 130.808 130.314 130.808 127.758V111.293C130.808 108.545 129.33 105.985 126.951 104.612L74.9914 74.6137C72.6121 73.2398 69.6558 73.2404 67.2771 74.6137L15.3186 104.612C12.9393 105.986 11.4612 108.546 11.4612 111.293V171.289C11.4612 174.037 12.9393 176.597 15.3186 177.97ZM95.332 97.0472L110.361 105.724C108.813 108.207 106.056 109.82 102.988 109.82C98.1989 109.82 94.3019 105.924 94.3019 101.134C94.3019 99.6937 94.663 98.2927 95.332 97.0472Z" fill="black"/>
<path d="M35.4124 150.844C33.6047 152.652 33.6047 155.583 35.4124 157.39L43.8216 165.799C44.7252 166.703 45.9102 167.155 47.0946 167.155C48.279 167.155 49.464 166.703 50.3675 165.799C52.1753 163.991 52.1753 161.06 50.3675 159.253L41.9583 150.844C40.1512 149.037 37.2202 149.037 35.4124 150.844Z" fill="black"/>
<path d="M53.0011 115.381C51.1933 113.573 48.2623 113.573 46.4552 115.381L38.046 123.79C36.2383 125.598 36.2383 128.529 38.046 130.336C38.9496 131.239 40.1346 131.692 41.3189 131.692C42.5033 131.692 43.6883 131.24 44.5919 130.336L53.0011 121.927C54.8088 120.119 54.8088 117.188 53.0011 115.381Z" fill="black"/>
<path d="M102.869 148.668L97.9631 153.573C96.1554 155.381 96.1554 158.312 97.9631 160.119C98.8667 161.023 100.052 161.475 101.236 161.475C102.42 161.475 103.605 161.024 104.509 160.119L109.414 155.214C111.222 153.406 111.222 150.475 109.414 148.668C107.607 146.86 104.676 146.86 102.869 148.668Z" fill="black"/>
<path d="M75.3067 182.426C78.2095 182.426 80.5627 180.073 80.5627 177.17C80.5627 174.267 78.2095 171.914 75.3067 171.914C72.404 171.914 70.0508 174.267 70.0508 177.17C70.0508 180.073 72.404 182.426 75.3067 182.426Z" fill="black"/>
<path d="M64.7949 105.338C67.6977 105.338 70.0509 102.985 70.0509 100.082C70.0509 97.1796 67.6977 94.8264 64.7949 94.8264C61.8921 94.8264 59.5389 97.1796 59.5389 100.082C59.5389 102.985 61.8921 105.338 64.7949 105.338Z" fill="black"/>
<path d="M302.437 201.107V162.438C302.437 157.85 300.844 153.361 297.954 149.799L283.44 131.915C281.829 129.93 278.914 129.627 276.929 131.237C274.944 132.848 274.64 135.763 276.251 137.749L290.764 155.632C292.321 157.551 293.179 159.968 293.179 162.438V178.158H256.64V156.965C256.64 156.048 256.367 155.152 255.857 154.39L232.398 119.35C231.539 118.067 230.096 117.296 228.552 117.296H150.257V97.6927H238.6C241.869 97.6927 244.926 99.1486 246.986 101.687L262.639 120.975C264.25 122.96 267.165 123.263 269.15 121.653C271.135 120.042 271.439 117.127 269.828 115.141L254.175 95.8535C250.349 91.1388 244.672 88.4349 238.6 88.4349H228.854V79.7214H229.541C233.114 79.7214 236.021 76.8145 236.021 73.2409V70.6389C236.021 68.4121 235.761 66.2457 235.284 64.1609L251.126 48.3189C252.103 48.7559 253.167 48.9923 254.27 48.9923C256.33 48.9923 258.268 48.1899 259.724 46.7327L276.27 30.1878C277.727 28.7306 278.529 26.7933 278.529 24.7325C278.529 22.6717 277.727 20.7343 276.27 19.2772L259.248 2.25636C256.24 -0.752429 251.345 -0.751812 248.338 2.25636L231.793 18.8019C230.336 20.2591 229.534 22.1965 229.534 24.2572C229.534 25.3595 229.77 26.4236 230.207 27.4006L214.9 42.7081C212.382 41.9934 209.728 41.6027 206.984 41.6027H156.698C153.125 41.6027 150.218 44.5096 150.218 48.0831V73.2416C150.218 76.8151 153.125 79.722 156.698 79.722H157.385V88.4355H148.714C144.46 88.4355 141 91.896 141 96.1503V118.84C141 123.094 144.46 126.555 148.714 126.555H159.87V136.218H155.193C150.709 136.218 147.06 139.866 147.06 144.351V154.992C147.06 159.476 150.709 163.124 155.193 163.124H158.627V175.418C158.627 177.974 160.7 180.046 163.256 180.046C165.812 180.046 167.885 177.974 167.885 175.418V163.124H173.94V174.716C173.94 179.201 177.588 182.85 182.073 182.85H192.634C197.118 182.85 200.766 179.201 200.766 174.716V163.124H206.981V175.418C206.981 177.974 209.053 180.046 211.61 180.046C214.166 180.046 216.238 177.974 216.238 175.418V163.124H219.514C223.998 163.124 227.647 159.476 227.647 154.992V144.351C227.647 139.866 223.998 136.218 219.514 136.218H214.837V126.554H226.08L247.382 158.371V196.378H145.736C141.251 196.378 137.603 200.027 137.603 204.511V217.349C137.603 221.833 141.251 225.481 145.736 225.481H225.903V258.387H213.436V248.299C213.436 243.815 209.788 240.167 205.304 240.167H169.318C164.834 240.167 161.185 243.815 161.185 248.299V258.387H148.54C144.487 258.387 140.805 259.991 138.085 262.592H129.067C131.173 257.757 131.493 252.246 129.774 247.019C129.314 245.623 128.219 244.527 126.823 244.068C120.116 241.863 112.942 243.005 107.331 246.99V246.197C107.331 243.641 105.258 241.568 102.702 241.568C100.146 241.568 98.073 243.641 98.073 246.197V246.99C92.4615 243.005 85.288 241.862 78.5804 244.068C77.1843 244.527 76.0888 245.623 75.6296 247.019C73.9101 252.246 74.2304 257.757 76.3363 262.592H69.3701C71.4765 257.757 71.7962 252.246 70.0768 247.019C69.6176 245.623 68.5221 244.527 67.126 244.068C60.419 241.863 53.2454 243.005 47.634 246.99V246.197C47.634 243.641 45.5614 241.568 43.0051 241.568C40.4487 241.568 38.3761 243.641 38.3761 246.197V246.99C32.7647 243.005 25.5917 241.862 18.8835 244.068C17.4874 244.527 16.3919 245.623 15.9327 247.019C14.2133 252.246 14.5336 257.757 16.6394 262.592H9.36462C5.11035 262.592 1.64978 266.053 1.64978 270.307V305.199C1.64978 311.154 6.49532 316 12.4506 316H164.455C168.71 316 172.17 312.539 172.17 308.285V300.033H185.156C187.713 300.033 189.785 297.961 189.785 295.404C189.785 292.848 187.713 290.775 185.156 290.775H142.657V273.528C142.657 270.284 145.296 267.645 148.54 267.645H293.18V290.775H206.758C204.201 290.775 202.129 292.848 202.129 295.404C202.129 297.961 204.201 300.033 206.758 300.033H263.666V308.285C263.666 312.539 267.126 316 271.38 316H294.722C298.976 316 302.437 312.539 302.437 308.285V243.635C309.578 239.24 314.35 231.353 314.35 222.371C314.35 213.388 309.578 205.502 302.437 201.107ZM219.596 88.4349H166.643V79.7214H219.596V88.4349ZM253.793 9.89344L268.632 24.7319L254.269 39.095L239.431 24.2566L253.793 9.89344ZM236.39 34.3088L244.217 42.1353L231.4 54.9524C229.381 51.8221 226.78 49.1046 223.747 46.9518L236.39 34.3088ZM159.476 50.8599H206.984C217.832 50.8599 226.668 59.6381 226.763 70.4636H159.476V50.8599ZM169.127 126.554H205.58V136.218H169.127V126.554ZM191.509 173.592H183.198V163.124H191.509V173.592ZM218.389 145.476V153.867H156.318V145.476H218.389ZM111.03 255.927C113.832 253.125 117.692 251.835 121.523 252.319C122.006 256.151 120.717 260.01 117.916 262.813C115.114 265.614 111.254 266.904 107.423 266.419C106.94 262.589 108.228 258.728 111.03 255.927ZM83.8814 252.319C87.711 251.836 91.5728 253.125 94.3748 255.927C97.1768 258.728 98.4649 262.588 97.9823 266.419C94.1501 266.904 90.2903 265.614 87.4895 262.813C84.6868 260.011 83.3981 256.151 83.8814 252.319ZM83.9221 271.85C87.6036 274.422 91.9437 275.782 96.3813 275.782C96.9442 275.782 97.5083 275.756 98.073 275.712V281.513H47.6352V275.715C48.1999 275.759 48.764 275.781 49.3269 275.781C53.7639 275.781 58.1039 274.422 61.7855 271.849H83.9221V271.85ZM51.3334 255.927C54.136 253.125 57.9965 251.835 61.8268 252.319C62.3094 256.151 61.0208 260.01 58.2193 262.813C55.4179 265.614 51.5587 266.904 47.7265 266.419C47.2433 262.589 48.532 258.728 51.3334 255.927ZM24.1852 252.319C28.0142 251.836 31.8765 253.125 34.6786 255.927C37.48 258.729 38.7687 262.589 38.286 266.419C34.4552 266.904 30.594 265.614 27.7932 262.813C24.9912 260.011 23.7025 256.151 24.1852 252.319ZM10.9076 271.85H24.2259C27.9074 274.422 32.2475 275.782 36.685 275.782C37.2479 275.782 37.812 275.76 38.3768 275.716V281.514H10.9076V271.85ZM133.399 306.742H12.4506C11.6001 306.742 10.9076 306.05 10.9076 305.199V290.772H133.399V306.742ZM133.399 273.528V281.513H107.331V275.712C107.896 275.756 108.46 275.782 109.023 275.782C113.46 275.782 117.8 274.422 121.482 271.85H133.494C133.433 272.402 133.399 272.961 133.399 273.528ZM162.912 300.033V306.742H142.657V300.033H162.912ZM204.179 258.387H170.443V249.425H204.179V258.387ZM247.382 258.387H235.161V225.481H247.382V258.387ZM247.382 216.224H146.861V205.636H247.382V216.224ZM293.179 306.742H272.923V300.033H293.179V306.742ZM293.179 258.387H256.64V187.416H293.179V197.705C291.946 197.517 290.683 197.418 289.399 197.418C275.64 197.418 264.447 208.612 264.447 222.37C264.447 236.128 275.64 247.322 289.399 247.322C290.684 247.322 291.946 247.224 293.179 247.035V258.387ZM289.398 238.065C280.744 238.065 273.704 231.024 273.704 222.371C273.704 213.717 280.744 206.677 289.398 206.677C298.052 206.677 305.092 213.717 305.092 222.371C305.092 231.024 298.052 238.065 289.398 238.065Z" fill="black"/>
</svg>
