<svg width="16" height="16" viewBox="0 0 16 16" fill="none" xmlns="http://www.w3.org/2000/svg">
<path d="M14 7V13C14 13.551 13.553 14 13 14H3C2.44897 14 2 13.551 2 13V2H9L11 0H2C0.896 0 0 0.896 0 2V13C0 14.657 1.344 16 3 16H13C14.6579 16 16 14.657 16 13V5L14 7Z" fill="#009846"/>
<path d="M4.21503 11.7631L8.21503 10.7631L6.71503 9.26306L5.21503 7.76306L4.21503 11.7631Z" fill="#009846"/>
<path d="M6.008 7.14209L8.836 9.97106L15.791 3.016C15.9 2.908 15.967 2.76703 15.9771 2.62209C15.9891 2.47906 15.9421 2.34706 15.8482 2.25312L13.803 0.209906L13.7251 0.132C13.637 0.044 13.5179 0 13.395 0C13.2449 0 13.0861 0.0630312 12.963 0.188L12.9409 0.210094L10.939 2.21009L6.008 7.14209Z" fill="#009846"/>
</svg>
