<svg width="13" height="13" viewBox="0 0 13 13" fill="none" xmlns="http://www.w3.org/2000/svg">
<path d="M9.1586 11.7377C9.00585 11.7377 8.85375 11.711 8.70815 11.659C7.72665 11.3048 6.75815 10.7809 5.8293 10.1023C5.269 9.69279 4.73015 9.22999 4.2264 8.72624C3.74215 8.24199 3.29495 7.72459 2.8978 7.18834C2.2205 6.27379 1.69335 5.31829 1.3313 4.34849C1.14995 3.86359 1.26955 3.31304 1.63615 2.94709L2.93225 1.65099C3.44965 1.13359 4.29075 1.13359 4.80815 1.65099L6.0529 2.89574C6.3025 3.14534 6.4403 3.47879 6.4403 3.83369C6.4403 4.18859 6.3025 4.52204 6.0529 4.77164L5.8189 5.00564C6.12765 5.39564 6.46435 5.77329 6.8225 6.13144C7.20145 6.51039 7.60315 6.86594 8.0172 7.18964L8.24405 6.96279C8.49365 6.71319 8.8271 6.57539 9.182 6.57539C9.5369 6.57539 9.87035 6.71319 10.12 6.96279L11.3647 8.20754C11.6143 8.45714 11.7521 8.79059 11.7521 9.14549C11.7521 9.50039 11.6143 9.83384 11.3647 10.0834L10.0972 11.3509C9.91845 11.529 9.6942 11.6525 9.44785 11.7078C9.3523 11.7273 9.25545 11.7377 9.1586 11.7377ZM3.87085 2.09364C3.7441 2.09364 3.61735 2.14174 3.52115 2.23794L2.22505 3.53404C2.08855 3.67054 2.0437 3.87529 2.1113 4.05599C2.44605 4.95299 2.93615 5.83959 3.5673 6.69174C3.9404 7.19549 4.3603 7.68169 4.8153 8.13669C5.2885 8.60989 5.7955 9.04474 6.3207 9.42954C7.18585 10.062 8.08415 10.5482 8.9909 10.8758C9.1703 10.9408 9.37375 10.8953 9.5083 10.7601L10.7758 9.49259C10.8688 9.39964 10.9195 9.27549 10.9195 9.14289C10.9195 9.01029 10.8681 8.88614 10.7758 8.79319L9.53105 7.54844C9.338 7.35539 9.0247 7.35539 8.83165 7.54844L8.44165 7.93844C8.3448 8.03529 8.21675 8.09379 8.0809 8.10354C7.9444 8.11329 7.8092 8.07364 7.69935 7.99109C7.1891 7.60759 6.69575 7.17924 6.2336 6.71709C5.79355 6.27704 5.3834 5.80904 5.01485 5.32479C4.84325 5.09989 4.86535 4.77944 5.0649 4.57924L5.464 4.18014C5.55695 4.08719 5.60765 3.96304 5.60765 3.83044C5.60765 3.69784 5.5563 3.57369 5.464 3.48074L4.22055 2.23794C4.12435 2.14174 3.9976 2.09364 3.87085 2.09364Z" fill="#009846"/>
</svg>
