<svg width="60" height="58" viewBox="0 0 60 58" fill="none" xmlns="http://www.w3.org/2000/svg"><g filter="url(#filter0_d)"><path d="M28 48c11.048 0 20-8.952 20-20S39.048 8 28 8 8 16.952 8 28s8.952 20 20 20zM17.152 27.567l19.283-7.435c.895-.324 1.677.218 1.387 1.571l.001-.001L34.54 37.17c-.243 1.097-.895 1.363-1.807.847l-5-3.685-2.411 2.323c-.267.267-.492.492-1.009.492l.355-5.089 9.267-8.371c.403-.355-.09-.555-.622-.202l-11.451 7.21-4.937-1.54c-1.072-.34-1.095-1.072.227-1.588z" fill="#fff"/></g><defs><filter id="filter0_d" x="0" y="0" width="60" height="60" filterUnits="userSpaceOnUse" color-interpolation-filters="sRGB"><feFlood flood-opacity="0" result="BackgroundImageFix"/><feColorMatrix in="SourceAlpha" values="0 0 0 0 0 0 0 0 0 0 0 0 0 0 0 0 0 0 127 0"/><feOffset dx="2" dy="2"/><feGaussianBlur stdDeviation="5"/><feColorMatrix values="0 0 0 0 0 0 0 0 0 0 0 0 0 0 0 0 0 0 0.25 0"/><feBlend in2="BackgroundImageFix" result="effect1_dropShadow"/><feBlend in="SourceGraphic" in2="effect1_dropShadow" result="shape"/></filter></defs></svg>