<svg width="36" height="36" viewBox="0 0 36 36" fill="none" xmlns="http://www.w3.org/2000/svg"><path d="M36 18c0-9.941-8.059-18-18-18S0 8.059 0 18s8.059 18 18 18 18-8.059 18-18z" fill="url(#paint0_radial)"/><path d="M14.847 21.651l-.33 4.653c.473 0 .678-.203.924-.447l2.219-2.121 4.598 3.367c.844.47 1.438.223 1.665-.775l3.019-14.144c.268-1.247-.45-1.735-1.272-1.429L7.928 17.548c-1.21.47-1.192 1.145-.206 1.45l4.536 1.411 10.536-6.592c.496-.329.947-.147.576.181l-8.523 7.653z" fill="#fff"/><defs><radialGradient id="paint0_radial" cx="0" cy="0" r="1" gradientUnits="userSpaceOnUse" gradientTransform="matrix(18 0 0 18 18 18)"><stop stop-color="#29B6F6"/><stop offset="1" stop-color="#0277BD"/></radialGradient></defs></svg>