<svg width="36" height="36" viewBox="0 0 36 36" fill="none" xmlns="http://www.w3.org/2000/svg">
<g clip-path="url(#clip0)">
<path d="M36 18C36 8.05888 27.9411 0 18 0C8.05888 0 0 8.05888 0 18C0 27.9411 8.05888 36 18 36C27.9411 36 36 27.9411 36 18Z" fill="url(#paint0_radial)"/>
<path opacity="0.1" d="M31.5474 6.15777C28.9232 10.9751 25.2119 15.9441 20.5745 20.5815C15.9371 25.2188 10.9682 28.923 6.15794 31.5472C5.85636 31.2851 5.56346 31.012 5.27925 30.7278C3.56134 29.0672 2.19121 27.0812 1.24876 24.8857C0.306314 22.6901 -0.18959 20.3289 -0.210034 17.9397C-0.230479 15.5505 0.224945 13.1811 1.12968 10.9697C2.03442 8.75834 3.37036 6.74922 5.05961 5.0595C6.74886 3.36978 8.75761 2.03327 10.9687 1.12792C13.1799 0.222569 15.5491 -0.233516 17.9383 -0.213739C20.3275 -0.193961 22.6889 0.301283 24.8847 1.24312C27.0805 2.18495 29.0669 3.55452 30.7279 5.27198C31.0121 5.55619 31.2853 5.85145 31.5474 6.15777Z" fill="white"/>
<path d="M23.8903 11.2285H12.1098C11.639 11.2285 11.1728 11.3213 10.7379 11.5015C10.303 11.6817 9.90787 11.9459 9.57509 12.2789C9.24231 12.6119 8.9784 13.0072 8.79846 13.4423C8.61851 13.8773 8.52606 14.3435 8.52637 14.8143V21.1853C8.52606 21.6561 8.61851 22.1224 8.79846 22.5574C8.9784 22.9924 9.24231 23.3877 9.57509 23.7207C9.90787 24.0537 10.303 24.3179 10.7379 24.4981C11.1728 24.6784 11.639 24.7711 12.1098 24.7711H23.8903C24.3611 24.7711 24.8273 24.6784 25.2622 24.4981C25.6971 24.3179 26.0922 24.0537 26.425 23.7207C26.7578 23.3877 27.0217 22.9924 27.2016 22.5574C27.3816 22.1224 27.474 21.6561 27.4737 21.1853V14.8143C27.474 14.3435 27.3816 13.8773 27.2016 13.4423C27.0217 13.0072 26.7578 12.6119 26.425 12.2789C26.0922 11.9459 25.6971 11.6817 25.2622 11.5015C24.8273 11.3213 24.3611 11.2285 23.8903 11.2285ZM15.5037 20.9035V15.0961L20.4964 17.9998L15.5037 20.9035Z" fill="white"/>
</g>
<defs>
<radialGradient id="paint0_radial" cx="0" cy="0" r="1" gradientUnits="userSpaceOnUse" gradientTransform="translate(18 18) scale(18)">
<stop stop-color="#EF5350"/>
<stop offset="1" stop-color="#C62828"/>
</radialGradient>
<clipPath id="clip0">
<rect width="36" height="36" fill="white"/>
</clipPath>
</defs>
</svg>
