<svg width="12" height="9" viewBox="0 0 12 9" fill="none" xmlns="http://www.w3.org/2000/svg"><path d="M10.125 0h-8.25A1.877 1.877 0 000 1.875v5.25C0 8.159.841 9 1.875 9h8.25A1.877 1.877 0 0012 7.125v-5.25A1.877 1.877 0 0010.125 0zm1.125 7.125c0 .62-.505 1.125-1.125 1.125h-8.25C1.255 8.25.75 7.745.75 7.125v-5.25c0-.62.505-1.125 1.125-1.125h8.25c.62 0 1.125.505 1.125 1.125v5.25zm-.86-4.985L8.03 4.5l2.36 2.36a.375.375 0 11-.53.53L7.5 5.03 6.265 6.265a.374.374 0 01-.53 0L4.5 5.03 2.14 7.39a.374.374 0 01-.53 0 .375.375 0 010-.53L3.97 4.5 1.61 2.14a.375.375 0 11.53-.53L6 5.47l3.86-3.86a.375.375 0 11.53.53z" fill="#009846"/></svg>