<svg width="20" height="15" viewBox="0 0 20 15" fill="none" xmlns="http://www.w3.org/2000/svg"><path d="M16.875 0H3.125A3.129 3.129 0 000 3.125v8.75A3.129 3.129 0 003.125 15h13.75A3.129 3.129 0 0020 11.875v-8.75A3.129 3.129 0 0016.875 0zm1.875 11.875a1.877 1.877 0 01-1.875 1.875H3.125a1.877 1.877 0 01-1.875-1.875v-8.75c0-1.034.841-1.875 1.875-1.875h13.75c1.034 0 1.875.841 1.875 1.875v8.75zm-1.433-8.308L13.384 7.5l3.933 3.933a.625.625 0 11-.884.884L12.5 8.384l-2.058 2.058a.624.624 0 01-.884 0L7.5 8.384l-3.933 3.933a.623.623 0 01-.884 0 .625.625 0 010-.884L6.616 7.5 2.683 3.567a.625.625 0 11.884-.884L10 9.116l6.433-6.433a.625.625 0 11.884.884z" fill="#fff"/></svg>