<svg width="36" height="36" viewBox="0 0 36 36" fill="none" xmlns="http://www.w3.org/2000/svg"><g clip-path="url(#clip0)"><path d="M36 18c0-9.941-8.059-18-18-18S0 8.059 0 18s8.059 18 18 18 18-8.059 18-18z" fill="url(#paint0_radial)"/><path opacity=".1" d="M31.547 6.158c-2.624 4.817-6.335 9.786-10.973 14.423-4.637 4.638-9.606 8.342-14.416 10.966a17.184 17.184 0 01-.879-.82A18.001 18.001 0 0124.885 1.244a18 18 0 015.843 4.029c.284.284.557.58.82.886z" fill="#fff"/><path d="M15.736 19.224h-2.354c-.372 0-.502-.135-.502-.507v-2.873c0-.369.14-.509.504-.509h2.352v-2.072a5.184 5.184 0 01.646-2.667 3.91 3.91 0 012.115-1.757 5.19 5.19 0 011.812-.313h2.328c.334 0 .474.147.474.474v2.702c0 .339-.142.474-.474.474-.637 0-1.274 0-1.908.026-.635.026-.98.315-.98.978-.015.71 0 1.407 0 2.132h2.735c.388 0 .52.132.52.523v2.856c0 .386-.123.51-.513.51h-2.757v7.706c0 .412-.13.543-.535.543h-2.966c-.357 0-.497-.14-.497-.498v-7.728z" fill="#fff"/></g><defs><radialGradient id="paint0_radial" cx="0" cy="0" r="1" gradientUnits="userSpaceOnUse" gradientTransform="matrix(18 0 0 18 18 18)"><stop stop-color="#42A5F5"/><stop offset="1" stop-color="#1565C0"/></radialGradient><clipPath id="clip0"><path fill="#fff" d="M0 0h36v36H0z"/></clipPath></defs></svg>