<svg width="36" height="36" viewBox="0 0 36 36" fill="none" xmlns="http://www.w3.org/2000/svg"><g clip-path="url(#clip0)"><path d="M36 18c0-9.941-8.059-18-18-18S0 8.059 0 18s8.059 18 18 18 18-8.059 18-18z" fill="url(#paint0_linear)"/><path opacity=".1" d="M31.547 6.158c-2.624 4.817-6.335 9.786-10.973 14.423-4.637 4.638-9.606 8.342-14.416 10.966a17.184 17.184 0 01-.879-.82A18.001 18.001 0 0124.885 1.244a18 18 0 015.843 4.029c.284.284.557.58.82.886z" fill="#fff"/><path d="M22.263 8.526h-8.526a5.21 5.21 0 00-5.21 5.21v8.527a5.21 5.21 0 005.21 5.21h8.526a5.21 5.21 0 005.21-5.21v-8.527a5.21 5.21 0 00-5.21-5.21zm3.553 12.988a4.301 4.301 0 01-4.301 4.301h-7.03a4.301 4.301 0 01-4.3-4.3v-7.03a4.301 4.301 0 014.3-4.301h7.03a4.301 4.301 0 014.3 4.3v7.03z" fill="#fff"/><path d="M21.456 14.58l-.045-.046-.038-.037A4.775 4.775 0 0018 13.104 4.859 4.859 0 0013.173 18a4.92 4.92 0 001.421 3.46 4.781 4.781 0 003.415 1.42 4.909 4.909 0 003.447-8.3zM18 21.21A3.212 3.212 0 1121.167 18 3.186 3.186 0 0118 21.21zm6.26-8.33a1.156 1.156 0 01-1.149 1.164 1.138 1.138 0 01-.81-.338 1.168 1.168 0 01.813-1.987c.267 0 .526.094.731.265l.024.024a.723.723 0 01.104.104l.026.028c.17.21.262.47.26.74z" fill="#fff"/></g><defs><linearGradient id="paint0_linear" x1="5.272" y1="5.272" x2="30.728" y2="30.728" gradientUnits="userSpaceOnUse"><stop stop-color="#FAE100"/><stop offset=".15" stop-color="#FCB720"/><stop offset=".3" stop-color="#FF7950"/><stop offset=".5" stop-color="#FF1C74"/><stop offset="1" stop-color="#6C1CD1"/></linearGradient><clipPath id="clip0"><path fill="#fff" d="M0 0h36v36H0z"/></clipPath></defs></svg>