<svg width="200" height="200" viewBox="0 0 200 200" fill="none" xmlns="http://www.w3.org/2000/svg"><g clip-path="url(#clip0)"><path d="M174.397 56.306l-57.245-39.627a30.137 30.137 0 00-34.306 0L25.6 56.306a30.137 30.137 0 00-12.984 24.779v85.848c0 16.644 13.493 30.137 30.137 30.137h114.49c16.644 0 30.137-13.493 30.137-30.137V81.085c0-9.89-4.852-19.15-12.984-24.78z" fill="#FFE07D"/><path d="M30.91 81.084v85.851c0 16.644 13.491 30.135 30.136 30.135H42.755c-16.645 0-30.14-13.491-30.14-30.135V81.083c0-9.886 4.854-19.15 12.985-24.78l57.244-39.626a30.159 30.159 0 0126.3-3.937 30.176 30.176 0 00-8.005 3.937L43.891 56.304a30.142 30.142 0 00-12.98 24.78z" fill="#FFD064"/><path d="M187.376 80.52h-.004a30.12 30.12 0 01-12.973 24.211l-7.163 4.956-50.085 34.67a30.127 30.127 0 01-34.305 0l-48.388-33.496-8.855-6.13a30.112 30.112 0 01-12.978-24.212 30.143 30.143 0 0112.978-24.215l8.855-6.131 48.388-33.496a30.15 30.15 0 0134.309 0l50.081 34.67 7.163 4.956a30.144 30.144 0 0112.977 24.216z" fill="#FFD064"/><path d="M167.236 40.266v69.42l-50.085 34.671a30.13 30.13 0 01-34.305 0l-48.388-33.496V16.416c0-7.448 6.038-13.486 13.482-13.486h81.96l37.336 37.336z" fill="#F9F6F9"/><path d="M167.236 92.044v17.642l-50.085 34.671a30.13 30.13 0 01-34.305 0l-48.388-33.496V93.219l48.389 33.495a30.126 30.126 0 0034.304 0l50.085-34.67zm.001-51.777h-23.853c-7.445 0-13.482-6.037-13.482-13.483V2.932" fill="#DDDAEC"/><path d="M140.683 62.868a6.285 6.285 0 00-2.839-8.426l-9.736-4.822a6.286 6.286 0 00-8.426 2.839L100.416 91.33l-9.382-15.69a6.284 6.284 0 00-8.622-2.17l-9.325 5.573a6.288 6.288 0 00-2.17 8.622l18.487 30.923a6.289 6.289 0 005.64 3.059l13.105-.516a6.276 6.276 0 005.382-3.489l27.152-54.774z" fill="#CCF49F"/><path d="M105.315 99.525l23.328-47.067a6.266 6.266 0 011.421-1.87l-1.956-.968a6.287 6.287 0 00-8.427 2.839L100.415 91.33l4.9 8.195zm-6.95 19.063L79.878 87.664a6.288 6.288 0 012.17-8.622l7.916-4.732a6.281 6.281 0 00-7.553-.841l-9.325 5.573a6.288 6.288 0 00-2.17 8.622l18.487 30.924a6.29 6.29 0 005.64 3.059l6.877-.271a6.299 6.299 0 01-3.555-2.788z" fill="#B3E59F"/><path d="M176.064 53.896l-5.898-4.083v-9.547c0-.777-.309-1.523-.858-2.072L131.973.858A2.931 2.931 0 00129.901 0H47.944c-9.052 0-16.416 7.364-16.416 16.416v32.225l-7.592 5.255a33.07 33.07 0 00-14.24 26.677v.02c-.001.165-.007.329-.007.493v85.848C9.69 185.167 24.523 200 42.756 200h4.21a2.929 2.929 0 100-5.859h-4.21c-15.002 0-27.207-12.205-27.207-27.207V98.73a32.976 32.976 0 008.387 8.409l57.242 39.627c5.63 3.898 12.226 5.846 18.822 5.846 6.596 0 13.192-1.949 18.818-5.846l57.248-39.627a32.989 32.989 0 008.386-8.411v68.206c0 15.002-12.206 27.207-27.207 27.207h-98.56a2.929 2.929 0 100 5.859h98.56c18.233 0 33.066-14.834 33.066-33.066V81.086a33.07 33.07 0 00-14.247-27.19zm-43.233-43.893l27.334 27.334h-16.781c-5.818 0-10.553-4.734-10.553-10.553v-16.78zM15.557 80.535a27.21 27.21 0 0111.714-21.821l4.257-2.947v49.502l-4.259-2.948a27.246 27.246 0 01-11.712-21.785zm99.926 61.414c-9.26 6.414-21.705 6.414-30.969-.001l-47.126-32.623V16.416c0-5.82 4.735-10.557 10.556-10.557h79.028v20.925c0 9.05 7.362 16.413 16.412 16.413h20.923v64.956l-48.824 33.796zm57.248-39.628l-2.565 1.776V56.94l2.563 1.774a27.205 27.205 0 0111.713 21.767 27.248 27.248 0 01-11.711 21.84z" fill="#000"/><path d="M85.504 158.189a2.93 2.93 0 00-3.872-1.475l-48.727 21.844a2.93 2.93 0 002.397 5.347l48.727-21.844a2.93 2.93 0 001.475-3.872zm79.191 25.716a2.93 2.93 0 102.398-5.347l-48.728-21.844a2.93 2.93 0 00-2.397 5.347l48.727 21.844zM143.784 57.132a9.153 9.153 0 00-4.642-5.316l-9.73-4.818a9.143 9.143 0 00-7.04-.481 9.156 9.156 0 00-5.315 4.64L100.175 85.22l-6.626-11.082a9.152 9.152 0 00-5.661-4.212 9.16 9.16 0 00-6.979 1.027l-9.324 5.575c-4.362 2.607-5.79 8.276-3.183 12.639l18.487 30.92a9.21 9.21 0 008.273 4.488l13.104-.519a9.186 9.186 0 007.889-5.114l13.758-27.75a2.93 2.93 0 10-5.25-2.603l-13.762 27.757a3.332 3.332 0 01-2.866 1.855l-13.104.52a3.353 3.353 0 01-3.012-1.638L73.432 86.162a3.36 3.36 0 011.16-4.603l9.324-5.575a3.337 3.337 0 012.542-.375c.869.22 1.6.764 2.061 1.536l9.384 15.691a2.93 2.93 0 005.14-.203l19.263-38.873a3.34 3.34 0 011.937-1.69 3.33 3.33 0 012.565.177l9.733 4.82a3.333 3.333 0 011.691 1.936c.286.85.224 1.76-.175 2.564l-8.191 16.522a2.93 2.93 0 005.249 2.604l8.192-16.523a9.161 9.161 0 00.477-7.038z" fill="#000"/></g><defs><clipPath id="clip0"><path fill="#fff" d="M0 0h200v200H0z"/></clipPath></defs></svg>