<svg width="36" height="36" viewBox="0 0 36 36" fill="none" xmlns="http://www.w3.org/2000/svg"><g clip-path="url(#clip0)"><path d="M36 18c0-9.941-8.059-18-18-18S0 8.059 0 18s8.059 18 18 18 18-8.059 18-18z" fill="url(#paint0_radial)"/><path opacity=".1" d="M31.547 6.158c-2.624 4.817-6.335 9.786-10.973 14.423-4.637 4.638-9.606 8.342-14.416 10.966a17.184 17.184 0 01-.879-.82A18.001 18.001 0 0124.885 1.244a18 18 0 015.843 4.029c.284.284.557.58.82.886z" fill="#fff"/><path d="M27.474 27.474v-6.95c0-3.4-.732-6.018-4.707-6.018-1.91 0-3.192 1.047-3.716 2.042h-.054v-1.724h-3.768v12.65h3.922v-6.265c0-1.658.313-3.245 2.368-3.245 2.056 0 2.042 1.895 2.042 3.352v6.158h3.913zM8.839 14.824h3.93v12.65h-3.93v-12.65zm1.963-6.298a2.285 2.285 0 102.274 2.277 2.276 2.276 0 00-2.274-2.277z" fill="#fff"/></g><defs><radialGradient id="paint0_radial" cx="0" cy="0" r="1" gradientUnits="userSpaceOnUse" gradientTransform="matrix(18 0 0 18 18 18)"><stop stop-color="#42A5F5"/><stop offset="1" stop-color="#1565C0"/></radialGradient><clipPath id="clip0"><path fill="#fff" d="M0 0h36v36H0z"/></clipPath></defs></svg>