<svg width="64" height="64" viewBox="0 0 64 64" fill="none" xmlns="http://www.w3.org/2000/svg"><g clip-path="url(#clip0)"><path d="M.95 63.05h48.158V13.456L36.603.95H.95v62.098z" fill="#E6E6E6"/><path d="M49.108 13.457H36.603V.95" fill="#CCC"/><path d="M62.837 24.229L51.886 50.995l-6.59 6.068-.448-8.947L55.8 21.349a1.498 1.498 0 011.95-.818l4.27 1.747a1.496 1.496 0 01.817 1.95z" fill="#4FD68D"/><path d="M59.885 21.405l-14.59 35.657-.447-8.946L55.8 21.349a1.497 1.497 0 011.95-.818l2.135.874z" fill="#009846"/><path d="M51.886 50.995l-6.59 6.068-.035-.698-.413-8.25 7.038 2.88zm10.951-26.766l-2.12 5.184-7.038-2.88 2.12-5.184a1.497 1.497 0 011.951-.818l4.27 1.747a1.496 1.496 0 01.817 1.95z" fill="#545D68"/><path d="M59.61 21.293l-2.687 6.568-3.244-1.327 2.12-5.185a1.498 1.498 0 011.952-.818l1.86.762zM44.848 48.116l3.244 1.327-2.831 6.922-.413-8.25z" fill="#3B454F"/><path d="M63.709 22.717a2.428 2.428 0 00-1.33-1.318l-4.27-1.747a2.429 2.429 0 00-1.87.008 2.432 2.432 0 00-1.32 1.33l-4.86 11.879V13.456c0-.251-.1-.494-.278-.672L37.275.278A.95.95 0 0036.603 0H.951A.95.95 0 000 .95v7.336a.95.95 0 001.9 0V1.901h33.752v11.556c0 .524.426.95.95.95H48.16v23.108l-4.19 10.24a.944.944 0 00-.07.408l.447 8.947a.95.95 0 001.593.652l2.22-2.043v6.38H1.9V12.09a.95.95 0 10-1.901 0v50.96c0 .525.426.951.95.951H49.11a.95.95 0 00.95-.95V53.97l2.47-2.274a.96.96 0 00.237-.34l4.309-10.532a.95.95 0 00-1.76-.72l-3.95 9.653-5.278-2.16 8.111-19.823 5.279 2.16-2.799 6.84a.95.95 0 001.76.72l5.28-12.904a2.43 2.43 0 00-.01-1.872zM37.553 3.245l9.262 9.261h-9.262V3.245zm8.32 46.317l4.27 1.747-4 3.68-.27-5.427zm16.085-25.693l-1.762 4.304-5.278-2.16 1.761-4.304a.541.541 0 01.294-.295.54.54 0 01.417-.003l4.27 1.747a.54.54 0 01.295.294.54.54 0 01.003.417z" fill="#000"/><path d="M31.631 10.377H19.846a.95.95 0 100 1.9H31.63a.95.95 0 000-1.9zM7.351 31.224h7.515a.95.95 0 00.95-.951v-6.732l1.418-1.805a.95.95 0 00-1.494-1.175l-.98 1.247H7.351a.95.95 0 00-.95.95v7.515c0 .525.425.95.95.95zm.95-7.515h4.966l-1.513 1.925-1.058-1.058a.95.95 0 00-1.344 1.344l1.816 1.816a.95.95 0 001.419-.085l1.328-1.69v3.362H8.301v-5.614zm33.468-.425h-20.34a.95.95 0 000 1.902h20.34a.95.95 0 100-1.902zM21.43 29.748h16.347a.95.95 0 000-1.901H21.43a.95.95 0 100 1.9zM6.4 42.755c0 .525.426.951.951.951h7.515a.95.95 0 00.95-.95v-6.732l1.418-1.806a.95.95 0 00-1.494-1.174l-.98 1.247H7.351a.95.95 0 00-.95.95v7.514zm1.901-6.564h4.966l-1.513 1.926-1.058-1.058a.95.95 0 00-1.344 1.344l1.816 1.815a.95.95 0 001.419-.085l1.328-1.69v3.362H8.301v-5.614zm33.468-.424h-20.34a.95.95 0 000 1.9h20.34a.95.95 0 100-1.9zM21.43 42.23h6.083a.95.95 0 000-1.9H21.43a.95.95 0 100 1.9zM6.4 55.238c0 .525.426.95.951.95h7.515a.95.95 0 00.95-.95v-7.514a.95.95 0 00-.95-.951H7.35a.95.95 0 00-.95.95v7.515zm1.901-6.564h5.614v5.613H8.301v-5.613zm34.419.526a.95.95 0 00-.951-.951h-20.34a.95.95 0 000 1.9h20.34a.95.95 0 00.95-.95zm-21.29 3.611a.95.95 0 000 1.901h17.297a.95.95 0 100-1.901H21.43z" fill="#000"/></g><defs><clipPath id="clip0"><path fill="#fff" d="M0 0h64v64H0z"/></clipPath></defs></svg>