<svg width="68" height="68" viewBox="0 0 68 68" fill="none" xmlns="http://www.w3.org/2000/svg"><path d="M64.617 40.252V58.28a5.26 5.26 0 01-5.26 5.26H8.642a5.26 5.26 0 01-5.26-5.26V40.251h61.236z" fill="#009846"/><path d="M6.882 58.28V40.251H3.381v18.03a5.26 5.26 0 005.26 5.258h3.5a5.26 5.26 0 01-5.259-5.259z" fill="#0D6225"/><path d="M64.617 40.252v5.25a65.496 65.496 0 01-24.776 7.331l-11.682.002A65.495 65.495 0 013.38 45.5v-5.25h61.236z" fill="#0D6225"/><path d="M28.159 47.583A65.516 65.516 0 011.01 38.934V20.78a5.274 5.274 0 015.274-5.274h55.43a5.275 5.275 0 015.276 5.274v18.155a65.495 65.495 0 01-27.149 8.648" fill="#009846"/><path d="M6.284 15.505h3.434a5.275 5.275 0 00-5.274 5.274v20.02a64.941 64.941 0 01-3.434-1.865V20.78a5.274 5.274 0 015.274-5.274zm41.45 21.163v9.72c-2.61.56-5.246.958-7.893 1.194l-11.683.001a65.688 65.688 0 01-7.893-1.194v-9.72c0-2.468 2-4.467 4.468-4.467h18.535c2.467 0 4.466 2 4.466 4.466z" fill="#0D6225"/><path d="M36.797 54.989h-5.595a3.044 3.044 0 01-3.044-3.045V43.43a3.044 3.044 0 013.044-3.044h5.595a3.044 3.044 0 013.044 3.044v8.515a3.044 3.044 0 01-3.044 3.044z" fill="#F7D360"/><path d="M32.198 44.425h3.603v6.524h-3.603v-6.524z" fill="#E58E13"/><path d="M39.388 9.818H28.611a5.304 5.304 0 01-5.305-5.303v-.052h21.386v.052a5.304 5.304 0 01-5.304 5.303z" fill="#009846"/><path d="M61.714 14.495h-2.59a1.01 1.01 0 100 2.02h2.59a4.27 4.27 0 014.266 4.264v17.572a67.44 67.44 0 01-1.84 1.01l-.006.003a63.956 63.956 0 01-15.39 5.77v-8.466a5.483 5.483 0 00-5.476-5.476H24.732a5.483 5.483 0 00-5.477 5.476v8.466A64.113 64.113 0 012.02 38.35V20.78a4.27 4.27 0 014.264-4.265h48.8a1.01 1.01 0 100-2.02h-3.916V9.819a6.372 6.372 0 00-6.365-6.365H23.196a6.372 6.372 0 00-6.365 6.365v4.677H6.284A6.291 6.291 0 000 20.779v18.155c0 .36.19.692.502.873.619.36 1.242.71 1.87 1.048v4.712a1.01 1.01 0 102.02 0v-3.662A65.945 65.945 0 0027.148 48.5v3.444a4.058 4.058 0 004.053 4.054h5.595a4.058 4.058 0 004.054-4.054V48.5a65.94 65.94 0 0022.756-6.594V58.28a4.254 4.254 0 01-4.25 4.25H8.642a4.254 4.254 0 01-4.25-4.25v-8.674a1.01 1.01 0 00-2.02 0v8.674a6.276 6.276 0 006.27 6.27h50.717a6.276 6.276 0 006.27-6.27V40.856a68.63 68.63 0 001.87-1.05 1.01 1.01 0 00.502-.872V20.78a6.292 6.292 0 00-6.286-6.284zm-18.14-9.022a4.301 4.301 0 01-4.186 3.336H28.611a4.302 4.302 0 01-4.187-3.336h19.15zM18.851 9.818a4.352 4.352 0 013.532-4.267c.496 2.99 3.1 5.277 6.228 5.277h10.778c3.128 0 5.73-2.287 6.227-5.277a4.351 4.351 0 013.532 4.267v4.677H18.852V9.818h-.001zm19.98 42.126a2.037 2.037 0 01-2.034 2.034h-5.594a2.037 2.037 0 01-2.035-2.034V43.43c0-1.122.913-2.034 2.035-2.034h5.594c1.121 0 2.034.912 2.034 2.034v8.515zm-2.034-12.569h-5.594a4.059 4.059 0 00-4.054 4.054v3.04a65.03 65.03 0 01-5.874-.897v-8.904a3.46 3.46 0 013.457-3.457h18.536a3.461 3.461 0 013.457 3.457v8.904a65.09 65.09 0 01-5.874.895V43.43a4.059 4.059 0 00-4.054-4.054z" fill="#000"/><path d="M35.801 43.415h-3.603a1.01 1.01 0 00-1.01 1.01v6.524c0 .557.453 1.01 1.01 1.01h3.603a1.01 1.01 0 001.01-1.01v-6.524a1.01 1.01 0 00-1.01-1.01zm-1.01 6.524h-1.583v-4.504h1.583v4.504z" fill="#000"/></svg>