<svg width="78" height="77" viewBox="0 0 78 77" fill="none" xmlns="http://www.w3.org/2000/svg"><g clip-path="url(#clip0)"><path d="M64.28 32.405v18.802c-8.705 6.883-19.572 9.711-30.054 8.483a40.612 40.612 0 01-20.505-8.483V32.405h50.56z" fill="#545D68"/><path d="M26.117 32.406v25.487a40.526 40.526 0 01-12.397-6.686V32.406h12.397zm28.266 25.711a1.15 1.15 0 01-1.159-1.143V36.131a1.15 1.15 0 011.159-1.144c.64 0 1.158.512 1.158 1.144v20.843a1.15 1.15 0 01-1.158 1.143z" fill="#3B454F"/><path d="M76.841 22.455v5.222L39 41.92 1.159 27.677v-5.222L39 8.212l37.841 14.243z" fill="#545D68"/><path d="M39 36.697v5.223L1.16 27.677v-5.222L39 36.697z" fill="#3B454F"/><path d="M61.685 65.744c0 1.769-1.452 3.202-3.243 3.202-1.792 0-3.244-1.433-3.244-3.202s1.452-3.202 3.244-3.202c1.79 0 3.243 1.433 3.243 3.202z" fill="#009846"/><path d="M77.254 21.386L52.59 12.103a1.163 1.163 0 00-1.495.66 1.14 1.14 0 00.67 1.477l21.826 8.215-15.11 5.687-19.002-8.494a1.164 1.164 0 00-1.533.57 1.138 1.138 0 00.577 1.514l16.909 7.558L39 35.473 4.41 22.455 39 9.435l8.524 3.21a1.165 1.165 0 001.496-.662 1.139 1.139 0 00-.67-1.476l-8.937-3.363c-.266-.1-.56-.1-.826 0L.746 21.386c-.449.17-.746.595-.746 1.069v5.222c0 .474.297.9.746 1.069l11.816 4.447v3.963c0 .631.519 1.144 1.159 1.144s1.158-.513 1.158-1.144v-3.09l23.708 8.922a1.176 1.176 0 00.826 0l17.87-6.726v18.099A39.826 39.826 0 0139 58.826c-8.71 0-17.253-2.898-24.12-8.173V41.73c0-.632-.52-1.144-1.16-1.144a1.15 1.15 0 00-1.158 1.143v9.477c0 .347.16.675.434.892 7.35 5.813 16.585 9.014 26.004 9.014a42.18 42.18 0 0018.284-4.189v4.629c-1.867.503-3.244 2.19-3.244 4.191 0 2.396 1.975 4.346 4.402 4.346s4.402-1.95 4.402-4.346c0-2-1.377-3.688-3.244-4.191v-5.837a41.325 41.325 0 005.404-3.617c.275-.217.435-.545.435-.892V33.192l11.815-4.447c.449-.168.746-.594.746-1.068v-5.222c0-.474-.297-.9-.746-1.069zM60.527 65.744c0 1.135-.936 2.058-2.085 2.058-1.15 0-2.085-.923-2.085-2.058 0-1.135.936-2.058 2.085-2.058 1.15 0 2.085.923 2.085 2.058zm-58.21-41.63L37.84 37.486v2.774L2.317 26.89v-2.774zM40.159 40.26v-2.774l17.125-6.445v2.774L40.159 40.26zM63.12 50.652a38.845 38.845 0 01-3.52 2.408V35.39l3.52-1.325v16.587zm-3.52-17.71v-2.774l16.082-6.053v2.774L59.6 32.942z" fill="#000"/></g><defs><clipPath id="clip0"><path fill="#fff" d="M0 0h78v77H0z"/></clipPath></defs></svg>