<svg width="316" height="316" viewBox="0 0 316 316" fill="none" xmlns="http://www.w3.org/2000/svg"><path d="M236.39 27.763l-20.73 20.73a23.903 23.903 0 0113.948 14.798l21.155-21.155-14.373-14.373zm-74.376 47.33h62.21v17.97h-62.21v-17.97z" fill="#009846"/><path d="M162.014 75.093h20.798v17.97h-20.798v-17.97zm110.982-48.179L256.451 43.46a3.085 3.085 0 01-4.364 0l-17.021-17.02a3.086 3.086 0 010-4.364L251.611 5.53a3.085 3.085 0 014.364 0l17.021 17.02a3.084 3.084 0 010 4.364z" fill="#0D5A23"/><path d="M250.627 26.439a3.086 3.086 0 010-4.365l10.947-10.947-5.599-5.598a3.085 3.085 0 00-4.364 0l-16.545 16.545a3.086 3.086 0 000 4.364l17.021 17.02a3.085 3.085 0 004.364 0l5.599-5.598-11.423-11.421z" fill="#003F1D"/><path d="M229.541 75.093h-72.843a1.852 1.852 0 01-1.852-1.852V48.083c0-1.023.829-1.852 1.852-1.852h50.286c13.48 0 24.408 10.928 24.408 24.408v2.602a1.851 1.851 0 01-1.851 1.852z" fill="#E7F2EA"/><path d="M175.281 73.24V48.084c0-1.023.829-1.852 1.852-1.852h-20.435a1.852 1.852 0 00-1.852 1.852V73.24c0 1.023.829 1.852 1.852 1.852h20.435a1.852 1.852 0 01-1.852-1.852z" fill="#92E3A9"/><path d="M9.365 267.221a3.086 3.086 0 00-3.086 3.086v15.835h131.748v-12.614c0-2.37.794-4.548 2.117-6.307H9.364z" fill="#E6F2EA"/><path d="M27.263 270.307a3.086 3.086 0 013.086-3.086H9.365a3.086 3.086 0 00-3.086 3.086v15.835h20.984v-15.835z" fill="#C2FAE3"/><path d="M42.106 270.247c3.709-3.708 1.834-11.596-4.187-17.617-6.021-6.021-13.909-7.896-17.617-4.187-3.709 3.708-1.834 11.596 4.187 17.617 6.02 6.021 13.909 7.896 17.617 4.187z" fill="#16DC71"/><path d="M61.458 266.062c6.02-6.021 7.896-13.908 4.187-17.617-3.709-3.708-11.596-1.834-17.617 4.187-6.021 6.022-7.896 13.909-4.188 17.618 3.71 3.708 11.597 1.834 17.618-4.188zm40.338 4.191c3.709-3.708 1.834-11.596-4.187-17.617-6.021-6.021-13.909-7.896-17.617-4.187-3.709 3.708-1.834 11.596 4.187 17.617 6.021 6.021 13.909 7.896 17.617 4.187z" fill="#16DC71"/><path d="M121.147 266.069c6.021-6.021 7.896-13.909 4.187-17.617-3.709-3.709-11.596-1.834-17.617 4.187-6.021 6.021-7.896 13.909-4.187 17.617 3.708 3.709 11.596 1.834 17.617-4.187z" fill="#16DC71"/><path d="M6.279 286.143v19.056a6.172 6.172 0 006.172 6.172h125.576v-25.228H6.279z" fill="#BB5D4C"/><path d="M27.263 305.199v-19.056H6.28v19.056a6.172 6.172 0 006.172 6.172h20.984a6.172 6.172 0 01-6.172-6.172z" fill="#A44F3E"/><path d="M178.569 157.878v16.839a3.504 3.504 0 003.504 3.503h10.561a3.504 3.504 0 003.503-3.503v-16.839h-17.568zm-14.071-36.57h45.711v20.156h-45.711v-20.156z" fill="#009846"/><path d="M164.498 121.308h15.682v20.156h-15.682v-20.156z" fill="#0D5A23"/><path d="M219.515 158.496h-64.323a3.504 3.504 0 01-3.503-3.504v-10.641a3.504 3.504 0 013.503-3.504h64.322a3.504 3.504 0 013.504 3.504v10.641a3.504 3.504 0 01-3.503 3.504z" fill="#C9E7D2"/><path d="M172.46 154.992v-10.641a3.503 3.503 0 013.503-3.504h-20.771a3.504 3.504 0 00-3.503 3.504v10.641a3.504 3.504 0 003.503 3.504h20.771a3.503 3.503 0 01-3.503-3.504z" fill="#92E3A9"/><path d="M294.359 152.715L250.581 98.77a15.432 15.432 0 00-11.981-5.706h-89.886a3.086 3.086 0 00-3.085 3.086v22.689a3.086 3.086 0 003.085 3.086h79.838l23.459 35.04v25.822h45.797v-20.349a15.43 15.43 0 00-3.449-9.723z" fill="#E7F2EA"/><path d="M163.821 118.839v-22.69a3.086 3.086 0 013.086-3.085h-18.193a3.086 3.086 0 00-3.085 3.086v22.689a3.086 3.086 0 003.085 3.086h18.193a3.085 3.085 0 01-3.086-3.086z" fill="#92E3A9"/><path d="M230.532 220.853h21.479v42.164h-21.479v-42.164z" fill="#009846"/><path d="M252.011 201.007H145.737a3.504 3.504 0 00-3.504 3.504v12.838a3.504 3.504 0 003.504 3.503h106.274v-19.845z" fill="#C9E7D2"/><path d="M162.938 217.349v-12.838a3.503 3.503 0 013.503-3.504h-20.704a3.504 3.504 0 00-3.504 3.504v12.838a3.504 3.504 0 003.504 3.503h20.705a3.502 3.502 0 01-3.504-3.503z" fill="#92E3A9"/><path d="M138.027 294.787v16.584h26.428a3.086 3.086 0 003.086-3.086v-13.498h-29.514z" fill="#009846"/><path d="M138.027 294.787h15.653v16.584h-15.653v-16.584z" fill="#0D5A23"/><path d="M268.294 294.787v13.498a3.086 3.086 0 003.086 3.086h23.341a3.086 3.086 0 003.086-3.086v-13.498h-29.513z" fill="#009846"/><path d="M282.995 308.285v-13.498h-14.7v13.498a3.086 3.086 0 003.085 3.086h14.701a3.086 3.086 0 01-3.086-3.086z" fill="#0D5A23"/><path d="M289.398 202.048c3 0 5.846.655 8.41 1.822v-21.083h-45.797v80.23h45.797v-22.145a20.24 20.24 0 01-8.41 1.822c-11.224 0-20.323-9.099-20.323-20.323s9.099-20.323 20.323-20.323z" fill="#92E3A9"/><path d="M208.807 263.016v-14.717a3.503 3.503 0 00-3.503-3.503h-35.986a3.504 3.504 0 00-3.504 3.503v14.717h42.993z" fill="#009846"/><path d="M181.453 263.016v-14.717a3.504 3.504 0 013.504-3.503h-15.64a3.504 3.504 0 00-3.503 3.503v14.717h15.639z" fill="#0D5A23"/><path d="M297.808 295.404H138.027v-21.876c0-5.805 4.706-10.512 10.512-10.512h149.269v32.388z" fill="#C9E7D2"/><path d="M166.731 263.016h-18.192c-5.805 0-10.512 4.706-10.512 10.512v21.876h18.192v-21.876c.001-5.805 4.707-10.512 10.512-10.512z" fill="#92E3A9"/><path d="M289.398 242.693c11.224 0 20.323-9.098 20.323-20.322 0-11.224-9.099-20.323-20.323-20.323s-20.323 9.099-20.323 20.323 9.099 20.322 20.323 20.322z" fill="#009846"/><path d="M285.846 222.371c0-8.234 4.899-15.318 11.938-18.512a20.243 20.243 0 00-8.386-1.812c-11.224 0-20.323 9.099-20.323 20.323s9.099 20.323 20.323 20.323c2.991 0 5.828-.651 8.386-1.812-7.039-3.193-11.938-10.278-11.938-18.51z" fill="#0D5A23"/><path d="M16.09 111.293v59.996c0 1.103.588 2.122 1.543 2.673l51.959 29.998a3.087 3.087 0 003.085 0l51.959-29.998a3.085 3.085 0 001.543-2.673v-59.996a3.085 3.085 0 00-1.543-2.672L72.677 78.622a3.087 3.087 0 00-3.085 0l-51.959 29.999a3.084 3.084 0 00-1.543 2.672z" fill="#B3DAFE"/><path d="M34.14 120.24c0-1.172.624-2.255 1.64-2.842l52.03-30.04-15.133-8.736a3.087 3.087 0 00-3.086 0L17.633 108.62a3.085 3.085 0 00-1.543 2.672v59.997c0 1.102.588 2.121 1.543 2.672l16.506 9.53V120.24z" fill="#8AC9FE"/><path d="M77.23 149.913c5.805 0 10.511-4.706 10.511-10.512 0-5.805-4.706-10.512-10.512-10.512-5.805 0-10.512 4.707-10.512 10.512 0 5.806 4.707 10.512 10.512 10.512zm17.037-58.826c-2.81 2.44-4.594 6.032-4.594 10.046 0 7.354 5.96 13.316 13.315 13.316 6.486 0 11.884-4.642 13.067-10.783l-21.788-12.58z" fill="#16DC71"/><path d="M92.37 139.401c0-8.349-6.792-15.141-15.14-15.141-8.35 0-15.142 6.792-15.142 15.141s6.793 15.141 15.141 15.141c8.349-.001 15.141-6.792 15.141-15.141zm-15.14 5.883a5.89 5.89 0 01-5.884-5.884 5.89 5.89 0 015.883-5.883 5.89 5.89 0 015.883 5.883 5.89 5.89 0 01-5.883 5.884z" fill="#000"/><path d="M15.319 177.97l51.957 29.998a7.706 7.706 0 003.859 1.031 7.713 7.713 0 003.857-1.03l36.012-20.792 13.238 13.239a4.615 4.615 0 003.273 1.356 4.628 4.628 0 003.273-7.902l-11.484-11.485 7.646-4.414a7.737 7.737 0 003.857-6.681v-21.931a4.629 4.629 0 00-9.257 0v21.04l-9.023 5.209-6.266-6.267a4.628 4.628 0 10-6.546 6.546l4.512 4.513-33.092 19.106-50.416-29.107v-58.215l50.416-29.108L87.32 92.42a17.862 17.862 0 00-2.277 8.713c0 9.894 8.05 17.944 17.944 17.944 6.442 0 12.214-3.45 15.383-8.73l3.179 1.836v15.574a4.63 4.63 0 009.258 0v-16.465a7.735 7.735 0 00-3.857-6.681L74.99 74.613a7.736 7.736 0 00-7.714 0L15.32 104.612a7.737 7.737 0 00-3.858 6.681v59.996a7.734 7.734 0 003.858 6.681zm80.013-80.923l15.029 8.677a8.697 8.697 0 01-7.373 4.096c-4.79 0-8.686-3.896-8.686-8.686 0-1.44.361-2.841 1.03-4.087z" fill="#000"/><path d="M35.412 150.844a4.629 4.629 0 000 6.546l8.41 8.409a4.614 4.614 0 003.273 1.356 4.628 4.628 0 003.273-7.902l-8.41-8.409a4.63 4.63 0 00-6.546 0zm17.589-35.463a4.628 4.628 0 00-6.546 0l-8.409 8.409a4.629 4.629 0 106.546 6.546l8.41-8.409a4.629 4.629 0 000-6.546zm49.868 33.287l-4.906 4.905a4.629 4.629 0 106.546 6.546l4.905-4.905a4.628 4.628 0 10-6.545-6.546zm-27.562 33.758a5.256 5.256 0 100-10.512 5.256 5.256 0 000 10.512zm-10.512-77.088a5.256 5.256 0 100-10.512 5.256 5.256 0 000 10.512z" fill="#000"/><path d="M302.437 201.107v-38.669c0-4.588-1.593-9.077-4.483-12.639l-14.514-17.884a4.63 4.63 0 00-7.189 5.834l14.513 17.883a10.835 10.835 0 012.415 6.806v15.72H256.64v-21.193a4.63 4.63 0 00-.783-2.575l-23.459-35.04a4.63 4.63 0 00-3.846-2.054h-78.295V97.693H238.6c3.269 0 6.326 1.456 8.386 3.994l15.653 19.288a4.63 4.63 0 007.189-5.834l-15.653-19.288a19.976 19.976 0 00-15.575-7.418h-9.746V79.72h.687a6.487 6.487 0 006.48-6.48v-2.602c0-2.227-.26-4.393-.737-6.478l15.842-15.842a7.68 7.68 0 003.144.673 7.66 7.66 0 005.454-2.26l16.546-16.544a7.664 7.664 0 002.259-5.455 7.665 7.665 0 00-2.259-5.456l-17.022-17.02c-3.008-3.01-7.903-3.009-10.91 0l-16.545 16.545a7.665 7.665 0 00-2.259 5.455 7.68 7.68 0 00.673 3.144L214.9 42.708a28.947 28.947 0 00-7.916-1.105h-50.286a6.487 6.487 0 00-6.48 6.48v25.159a6.487 6.487 0 006.48 6.48h.687v8.714h-8.671c-4.254 0-7.714 3.46-7.714 7.714v22.69c0 4.254 3.46 7.715 7.714 7.715h11.156v9.663h-4.677c-4.484 0-8.133 3.648-8.133 8.133v10.641c0 4.484 3.649 8.132 8.133 8.132h3.434v12.294a4.629 4.629 0 009.258 0v-12.294h6.055v11.592c0 4.485 3.648 8.134 8.133 8.134h10.561c4.484 0 8.132-3.649 8.132-8.134v-11.592h6.215v12.294a4.628 4.628 0 009.257 0v-12.294h3.276c4.484 0 8.133-3.648 8.133-8.132v-10.641c0-4.485-3.649-8.133-8.133-8.133h-4.677v-9.664h11.243l21.302 31.817v38.007H145.736c-4.485 0-8.133 3.649-8.133 8.133v12.838c0 4.484 3.648 8.132 8.133 8.132h80.167v32.906h-12.467v-10.088c0-4.484-3.648-8.132-8.132-8.132h-35.986c-4.484 0-8.133 3.648-8.133 8.132v10.088H148.54a15.085 15.085 0 00-10.455 4.205h-9.018a21.82 21.82 0 00.707-15.573 4.632 4.632 0 00-2.951-2.951c-6.707-2.205-13.881-1.063-19.492 2.922v-.793a4.63 4.63 0 00-9.258 0v.793c-5.611-3.985-12.785-5.128-19.493-2.922a4.63 4.63 0 00-2.95 2.951 21.817 21.817 0 00.706 15.573H69.37a21.815 21.815 0 00.707-15.573 4.63 4.63 0 00-2.951-2.951c-6.707-2.205-13.88-1.063-19.492 2.922v-.793a4.63 4.63 0 00-9.258 0v.793c-5.611-3.985-12.784-5.128-19.492-2.922a4.63 4.63 0 00-2.951 2.951 21.818 21.818 0 00.706 15.573H9.365c-4.255 0-7.715 3.461-7.715 7.715v34.892c0 5.955 4.845 10.801 10.8 10.801h152.005c4.255 0 7.715-3.461 7.715-7.715v-8.252h12.986a4.628 4.628 0 100-9.258h-42.499v-17.247a5.89 5.89 0 015.883-5.883h144.64v23.13h-86.422a4.629 4.629 0 000 9.258h56.908v8.252c0 4.254 3.46 7.715 7.714 7.715h23.342c4.254 0 7.715-3.461 7.715-7.715v-64.65c7.141-4.395 11.913-12.282 11.913-21.264 0-8.983-4.772-16.869-11.913-21.264zM219.596 88.435h-52.953V79.72h52.953v8.714zm34.197-78.542l14.839 14.839-14.363 14.363-14.838-14.838 14.362-14.364zM236.39 34.31l7.827 7.826L231.4 54.952a29.275 29.275 0 00-7.653-8l12.643-12.643zm-76.914 16.55h47.508c10.848 0 19.684 8.78 19.779 19.605h-67.287V50.86zm9.651 75.695h36.453v9.664h-36.453v-9.664zm22.382 47.038h-8.311v-10.468h8.311v10.468zm26.88-28.116v8.391h-62.071v-8.391h62.071zM111.03 255.927a12.568 12.568 0 0110.493-3.608 12.576 12.576 0 01-3.607 10.494 12.567 12.567 0 01-10.493 3.606 12.569 12.569 0 013.607-10.492zm-27.149-3.608c3.83-.483 7.692.806 10.494 3.608a12.57 12.57 0 013.607 10.492 12.564 12.564 0 01-10.492-3.606 12.57 12.57 0 01-3.609-10.494zm.041 19.531a21.73 21.73 0 0012.46 3.932c.562 0 1.126-.026 1.691-.07v5.801H47.635v-5.798a21.723 21.723 0 0014.15-3.866h22.137v.001zm-32.589-15.923a12.57 12.57 0 0110.494-3.608 12.576 12.576 0 01-3.608 10.494 12.564 12.564 0 01-10.492 3.606 12.57 12.57 0 013.606-10.492zm-27.148-3.608a12.574 12.574 0 0110.494 3.608 12.573 12.573 0 013.607 10.492 12.565 12.565 0 01-10.493-3.606 12.573 12.573 0 01-3.608-10.494zM10.908 271.85h13.318a21.73 21.73 0 0014.15 3.866v5.798H10.909v-9.664zm122.491 34.892H12.451c-.85 0-1.543-.692-1.543-1.543v-14.427h122.491v15.97zm0-33.214v7.985h-26.068v-5.801c.565.044 1.129.07 1.692.07 4.437 0 8.777-1.36 12.459-3.932h12.012a15.26 15.26 0 00-.095 1.678zm29.513 26.505v6.709h-20.255v-6.709h20.255zm41.267-41.646h-33.736v-8.962h33.736v8.962zm43.203 0h-12.221v-32.906h12.221v32.906zm0-42.163H146.861v-10.588h100.521v10.588zm45.797 90.518h-20.256v-6.709h20.256v6.709zm0-48.355H256.64v-70.971h36.539v10.289a25.072 25.072 0 00-3.78-.287c-13.759 0-24.952 11.194-24.952 24.952 0 13.758 11.193 24.952 24.952 24.952 1.285 0 2.547-.098 3.78-.287v11.352zm-3.781-20.322c-8.654 0-15.694-7.041-15.694-15.694 0-8.654 7.04-15.694 15.694-15.694s15.694 7.04 15.694 15.694c0 8.653-7.04 15.694-15.694 15.694z" fill="#000"/></svg>