<svg width="22" height="22" viewBox="0 0 22 22" fill="none" xmlns="http://www.w3.org/2000/svg"><g clip-path="url(#clip0)"><path d="M21.423 17.087l-4.453-2.903a1.32 1.32 0 00-1.74.277l-1.298 1.63a.563.563 0 01-.71.146l-.247-.133c-.818-.436-1.836-.978-3.886-2.983s-2.607-3-3.053-3.798l-.135-.241a.535.535 0 01.147-.698l1.666-1.267a1.252 1.252 0 00.283-1.7l-2.97-4.353A1.311 1.311 0 003.286.681L1.423 1.774a2.576 2.576 0 00-1.198 1.52C-.445 5.68.06 9.801 6.27 15.872 11.211 20.7 14.89 22 17.418 22a6.636 6.636 0 001.723-.22 2.617 2.617 0 001.554-1.17l1.12-1.82a1.246 1.246 0 00-.392-1.703zm-.24 1.336l-1.117 1.82a1.89 1.89 0 01-1.118.847c-2.256.605-6.196.104-12.159-5.724C.826 9.538.313 5.687.932 3.483c.134-.46.445-.853.868-1.095l1.862-1.091a.569.569 0 01.756.166L6.032 3.83l1.354 1.985c.162.24.108.56-.123.738L5.596 7.82a1.236 1.236 0 00-.34 1.61l.133.235c.468.84 1.05 1.884 3.177 3.962 2.127 2.079 3.196 2.648 4.055 3.106l.24.13a1.303 1.303 0 001.647-.333l1.297-1.629a.573.573 0 01.755-.12l4.453 2.903a.54.54 0 01.17.739z" fill="#000" fill-opacity=".6"/></g><defs><clipPath id="clip0"><path fill="#fff" d="M0 0h22v22H0z"/></clipPath></defs></svg>