<svg width="18" height="18" viewBox="0 0 18 18" fill="none" xmlns="http://www.w3.org/2000/svg"><path d="M12.681 16.252c-.211 0-.422-.037-.623-.109-1.36-.49-2.7-1.216-3.987-2.155a19.038 19.038 0 01-2.219-1.905c-.67-.67-1.29-1.387-1.84-2.13-.937-1.266-1.667-2.59-2.169-3.932a1.839 1.839 0 01.422-1.94L4.06 2.286a1.838 1.838 0 012.598 0L8.38 4.01c.346.345.536.807.536 1.298 0 .492-.19.953-.536 1.299l-.324.324A18.094 18.094 0 0011.1 9.955l.314-.314a1.825 1.825 0 011.299-.537c.491 0 .953.191 1.298.537l1.724 1.723c.345.346.536.808.536 1.3 0 .49-.19.952-.536 1.298l-1.755 1.755a1.843 1.843 0 01-.9.494 2.003 2.003 0 01-.4.041zM5.36 2.9a.683.683 0 00-.485.2L3.081 4.893a.685.685 0 00-.158.723c.464 1.242 1.143 2.47 2.016 3.65.517.697 1.098 1.37 1.728 2a18.03 18.03 0 002.085 1.79c1.198.876 2.441 1.55 3.697 2.003.248.09.53.027.716-.16l1.755-1.755a.68.68 0 00.2-.485.683.683 0 00-.2-.484l-1.723-1.723a.685.685 0 00-.968 0l-.54.54a.786.786 0 01-1.028.073 19.17 19.17 0 01-3.717-3.692.79.79 0 01.069-1.032l.553-.553a.68.68 0 00.199-.484.683.683 0 00-.2-.484l-1.72-1.721a.683.683 0 00-.484-.2z" fill="#222"/></svg>