<svg width="13" height="13" viewBox="0 0 13 13" fill="none" xmlns="http://www.w3.org/2000/svg"><path d="M9.159 11.738c-.153 0-.305-.027-.45-.079a11.554 11.554 0 01-2.88-1.557 13.82 13.82 0 01-1.603-1.376 13.799 13.799 0 01-1.328-1.538 11.632 11.632 0 01-1.567-2.84 1.328 1.328 0 01.305-1.4L2.932 1.65a1.328 1.328 0 011.876 0l1.245 1.245c.25.25.387.583.387.938s-.138.688-.387.938l-.234.234A13.068 13.068 0 008.017 7.19l.227-.227c.25-.25.583-.388.938-.388s.688.138.938.388l1.245 1.245c.25.25.387.583.387.937 0 .355-.138.689-.387.938l-1.268 1.268a1.332 1.332 0 01-.938.387zM3.87 2.094a.493.493 0 00-.35.144L2.225 3.534a.495.495 0 00-.114.522c.335.897.825 1.784 1.456 2.636A13.021 13.021 0 006.32 9.43a10.724 10.724 0 002.67 1.446c.18.065.384.02.518-.116l1.268-1.267a.493.493 0 000-.7L9.53 7.548a.495.495 0 00-.7 0l-.39.39a.568.568 0 01-.742.053 13.844 13.844 0 01-2.684-2.666.57.57 0 01.05-.746l.399-.399a.49.49 0 00.144-.35.493.493 0 00-.144-.35L4.221 2.239a.493.493 0 00-.35-.144z" fill="#009846"/></svg>