<svg width="36" height="36" viewBox="0 0 36 36" fill="none" xmlns="http://www.w3.org/2000/svg"><path d="M36 18c0-9.941-8.059-18-18-18S0 8.059 0 18s8.059 18 18 18 18-8.059 18-18z" fill="url(#paint0_radial)"/><path d="M26.99 13.13a5.161 5.161 0 01-3.119-1.043A5.174 5.174 0 0121.81 8h-3.345v9.14l-.004 5.008a3.028 3.028 0 01-3.204 3.021 3.017 3.017 0 01-1.385-.425 3.028 3.028 0 01-1.48-2.55 3.03 3.03 0 013.989-2.92v-3.396a6.58 6.58 0 00-.965-.072c-1.85 0-3.582.77-4.82 2.156a6.275 6.275 0 00-1.583 3.786 6.267 6.267 0 001.867 4.883 6.416 6.416 0 004.536 1.857c.326 0 .648-.024.965-.071a6.394 6.394 0 003.572-1.787 6.263 6.263 0 001.878-4.456l-.017-7.477A8.455 8.455 0 0027 16.46v-3.332h-.01z" fill="#fff"/><defs><radialGradient id="paint0_radial" cx="0" cy="0" r="1" gradientUnits="userSpaceOnUse" gradientTransform="matrix(18 0 0 18 18 18)"><stop stop-color="#707070"/><stop offset="1"/></radialGradient></defs></svg>