<svg width="60" height="58" viewBox="0 0 60 58" fill="none" xmlns="http://www.w3.org/2000/svg"><g filter="url(#filter0_d)" fill="#fff"><path d="M25.509 31.747L32.014 28l-6.505-3.747v7.494z"/><path d="M28 8C16.956 8 8 16.956 8 28s8.956 20 20 20 20-8.956 20-20S39.044 8 28 8zm12.497 20.02s0 4.057-.515 6.012a3.132 3.132 0 01-2.203 2.203c-1.956.515-9.779.515-9.779.515s-7.803 0-9.78-.535a3.132 3.132 0 01-2.202-2.203c-.515-1.935-.515-6.012-.515-6.012s0-4.056.515-6.012a3.195 3.195 0 012.203-2.223C20.177 19.25 28 19.25 28 19.25s7.824 0 9.78.535a3.132 3.132 0 012.202 2.203c.536 1.956.515 6.032.515 6.032z"/></g><defs><filter id="filter0_d" x="0" y="0" width="60" height="60" filterUnits="userSpaceOnUse" color-interpolation-filters="sRGB"><feFlood flood-opacity="0" result="BackgroundImageFix"/><feColorMatrix in="SourceAlpha" values="0 0 0 0 0 0 0 0 0 0 0 0 0 0 0 0 0 0 127 0"/><feOffset dx="2" dy="2"/><feGaussianBlur stdDeviation="5"/><feColorMatrix values="0 0 0 0 0 0 0 0 0 0 0 0 0 0 0 0 0 0 0.25 0"/><feBlend in2="BackgroundImageFix" result="effect1_dropShadow"/><feBlend in="SourceGraphic" in2="effect1_dropShadow" result="shape"/></filter></defs></svg>